<?xml version="1.0" encoding="UTF-8"?>
<svg id="Layer_1" data-name="Layer 1" xmlns="http://www.w3.org/2000/svg" version="1.1" viewBox="0 0 28.35 28.35">
  <defs>
    <style>
      .cls-1 {
        fill: #000;
        stroke-width: 0px;
      }

      .cls-2 {
        display: none;
      }
    </style>
  </defs>
  <g class="cls-2">
    <path class="cls-1" d="M11.54,16.82c0-.16,0-.26,0-.37,0-2.65.02-5.3.02-7.95,0-1.48.5-2.75,1.64-3.72.41-.35.89-.63,1.39-.84,1.38-.58,2.78-1.1,4.18-1.64,2.45-.95,4.99.44,5.53,3.01.39,1.85-.79,3.89-2.66,4.63-2.64,1.04-5.28,2.08-7.92,3.11-.23.09-.32.19-.32.45.01,2.45,0,4.89,0,7.34,0,2.7-1.75,4.85-4.38,5.4-2.88.6-5.87-1.46-6.32-4.37-.47-3.04,1.38-5.71,4.41-6.27,1.5-.28,2.88.09,4.11.98.09.06.17.13.31.23ZM13.4,11.14c.13-.04.21-.06.28-.09,2.43-.96,4.87-1.91,7.3-2.87.21-.08.4-.2.58-.33.89-.67,1.18-1.88.68-2.82-.52-.96-1.66-1.4-2.68-1.01-1.45.55-2.91,1.11-4.35,1.69-.92.37-1.56,1.07-1.68,2.05-.13,1.1-.09,2.21-.13,3.38ZM4.51,20.93c0,1.94,1.57,3.52,3.5,3.53,1.93,0,3.54-1.61,3.53-3.54,0-1.94-1.58-3.51-3.51-3.52-1.94,0-3.52,1.58-3.52,3.53Z"/>
    <path class="cls-1" d="M20.1,19.44c0-.88,0-1.71,0-2.55,0-.15,0-.31.04-.46.09-.43.47-.73.9-.74.41,0,.81.28.91.69.04.14.05.29.05.43,0,.76,0,1.52,0,2.28,0,.1,0,.21,0,.35.44,0,.86,0,1.28,0,.47,0,.94,0,1.4,0,.61,0,1.04.4,1.04.95,0,.55-.42.94-1.04.95-.88,0-1.75,0-2.66,0,0,.12-.01.22-.01.32,0,.81,0,1.62,0,2.43,0,.48-.26.83-.67.95-.38.12-.81,0-1.02-.36-.12-.2-.18-.45-.19-.69-.02-.77,0-1.54,0-2.31,0-.1,0-.21,0-.35-.13,0-.24,0-.34,0-.8,0-1.6.01-2.4,0-.72-.01-1.18-.63-.95-1.26.14-.39.49-.62.96-.63.79,0,1.58,0,2.37,0,.11,0,.21,0,.37,0Z"/>
  </g>
  <g class="cls-2">
    <path class="cls-1" d="M7.7,22.04c.23,1.06.76,1.9,1.57,2.55.81.65,1.75.95,2.79.95,2.86,0,5.72,0,8.58,0,2.19,0,3.93-1.43,4.37-3.57.06-.29.08-.6.08-.89,0-1.26,0-2.51,0-3.77,0-.56.36-.94.87-.94.51,0,.87.38.87.94,0,1.33,0,2.66,0,3.99-.01,2.85-2.16,5.39-4.97,5.89-.39.07-.79.11-1.19.11-2.82,0-5.65-.04-8.47.02-3.11.06-5.81-2.13-6.29-5.21,0-.03-.01-.05-.02-.1-1-.15-1.93-.5-2.74-1.11-1.64-1.23-2.52-2.87-2.53-4.93-.02-2.95,0-5.9,0-8.85,0-2.96,2.23-5.54,5.16-5.98.3-.04.6-.06.9-.06,2.95,0,5.9,0,8.85,0,2.91,0,5.44,2.12,5.96,4.98.02.1.04.19.07.31,1.02.16,1.96.51,2.79,1.14,1.61,1.23,2.45,2.86,2.49,4.9,0,.17,0,.35,0,.52-.02.47-.4.83-.88.83-.47,0-.87-.37-.86-.84.02-.9-.11-1.76-.54-2.56-.61-1.12-1.8-2.01-2.96-2.17,0,.11,0,.21,0,.32,0,2.44-.03,4.88,0,7.32.04,2.94-2.03,5.63-5.12,6.16-.34.06-.69.07-1.03.08-2.47,0-4.94,0-7.4,0h-.34ZM19.85,11.55c0-1.42,0-2.84,0-4.26,0-.3-.02-.6-.08-.9-.43-2.16-2.18-3.59-4.38-3.59-2.85,0-5.7,0-8.55,0-.29,0-.59.02-.87.07-2.15.42-3.6,2.18-3.6,4.38,0,2.86,0,5.72,0,8.58,0,.29.02.58.08.87.43,2.16,2.18,3.59,4.39,3.59,2.85,0,5.7,0,8.55,0,.29,0,.58-.02.87-.07,2.15-.42,3.6-2.18,3.6-4.38,0-1.43,0-2.86,0-4.29Z"/>
    <path class="cls-1" d="M10.23,12.42c-.49,0-.95,0-1.4,0-1.26,0-1.66-.2-1.66-.87,0-.67.39-.88,1.67-.88.45,0,.91,0,1.39,0,0-.7,0-1.38,0-2.06,0-.13,0-.26.04-.38.12-.42.53-.67.97-.62.41.05.73.43.74.85,0,.72,0,1.44,0,2.2.09,0,.18,0,.27,0,.63,0,1.26,0,1.88,0,.53,0,.91.37.91.88,0,.5-.38.87-.92.87-.7,0-1.4,0-2.13,0,0,.1-.01.19-.01.27,0,.64,0,1.27,0,1.91,0,.51-.39.88-.89.87-.48,0-.86-.38-.86-.87,0-.72,0-1.44,0-2.19Z"/>
  </g>
  <g>
    <path class="cls-1" d="M7.64,13.36c-1.07,0-2.14,0-3.21,0-1.41,0-2.48-1.07-2.48-2.48,0-2.15,0-4.31,0-6.46,0-1.39,1.07-2.46,2.47-2.46,2.15,0,4.31,0,6.46,0,1.4,0,2.47,1.07,2.47,2.46,0,2.16,0,4.33,0,6.49,0,1.38-1.08,2.45-2.45,2.45-1.09,0-2.17,0-3.26,0ZM11.73,7.68c0-1.05,0-2.1,0-3.16,0-.61-.33-.94-.94-.94-2.09,0-4.17,0-6.26,0-.61,0-.94.33-.94.94,0,2.09,0,4.17,0,6.26,0,.61.33.94.94.94,2.09,0,4.17,0,6.26,0,.62,0,.94-.33.94-.94,0-1.04,0-2.07,0-3.11Z"/>
    <path class="cls-1" d="M20.68,13.36c-1.07,0-2.14,0-3.21,0-1.41,0-2.48-1.07-2.48-2.48,0-2.15,0-4.31,0-6.46,0-1.39,1.07-2.46,2.47-2.46,2.15,0,4.31,0,6.46,0,1.4,0,2.46,1.07,2.47,2.46,0,2.16,0,4.33,0,6.49,0,1.38-1.08,2.44-2.46,2.45-1.09,0-2.17,0-3.26,0ZM20.71,3.58c-1.05,0-2.1,0-3.16,0-.61,0-.94.33-.94.94,0,2.09,0,4.17,0,6.26,0,.61.33.94.94.94,2.09,0,4.17,0,6.26,0,.62,0,.94-.33.94-.94,0-2.09,0-4.17,0-6.26,0-.61-.33-.94-.94-.94-1.04,0-2.07,0-3.11,0Z"/>
    <path class="cls-1" d="M1.96,20.67c0-1.07,0-2.14,0-3.21,0-1.41,1.07-2.48,2.48-2.48,2.15,0,4.29,0,6.44,0,1.41,0,2.48,1.06,2.48,2.47,0,2.15,0,4.31,0,6.46,0,1.4-1.07,2.46-2.47,2.46-2.15,0-4.31,0-6.46,0-1.41,0-2.47-1.07-2.47-2.49,0-1.08,0-2.15,0-3.23ZM11.73,20.69c0-1.04,0-2.09,0-3.13,0-.61-.33-.94-.94-.94-2.09,0-4.17,0-6.26,0-.61,0-.94.33-.94.94,0,2.09,0,4.17,0,6.26,0,.61.33.94.94.94,2.09,0,4.17,0,6.26,0,.62,0,.94-.33.94-.94,0-1.04,0-2.09,0-3.13Z"/>
    <path class="cls-1" d="M14.99,20.68c0-1.07,0-2.14,0-3.21,0-1.41,1.07-2.48,2.47-2.48,2.15,0,4.31,0,6.46,0,1.39,0,2.46,1.07,2.46,2.47,0,2.15,0,4.31,0,6.46,0,1.4-1.07,2.47-2.46,2.47-2.16,0-4.33,0-6.49,0-1.38,0-2.45-1.08-2.45-2.46,0-1.09,0-2.17,0-3.26ZM24.76,20.72c0-1.05,0-2.1,0-3.16,0-.61-.33-.94-.94-.94-2.09,0-4.17,0-6.26,0-.61,0-.94.33-.94.94,0,2.09,0,4.17,0,6.26,0,.61.33.94.94.94,2.09,0,4.17,0,6.26,0,.62,0,.94-.33.94-.94,0-1.04,0-2.07,0-3.11Z"/>
  </g>
</svg>