<?xml version="1.0" encoding="UTF-8"?>
<svg id="Layer_1" data-name="Layer 1" xmlns="http://www.w3.org/2000/svg" version="1.1" viewBox="0 0 283.46 283.46">
  <defs>
    <style>
      .cls-1 {
        fill: #ffe600;
      }

      .cls-1, .cls-2, .cls-3 {
        stroke-width: 0px;
      }

      .cls-2 {
        fill: #000;
      }

      .cls-3 {
        fill: red;
      }

      .cls-4 {
        display: none;
      }
    </style>
  </defs>
  <g class="cls-4">
    <polygon class="cls-1" points="120.37 32.11 15.33 208.11 15.33 231.29 24.09 243.74 42.57 259.31 247.2 259.31 268.21 241.41 272.88 218.85 268.21 201.73 166.28 32.11 120.37 32.11"/>
    <path class="cls-2" d="M282.1,223.9c-1.67,5.74-2.56,11.87-5.14,17.16-9.31,19.09-25.02,28.72-46.22,28.81-38.98.16-77.96.05-116.94.05-20.36,0-40.71.03-61.07,0-15.97-.03-29.56-5.65-39.55-18.27-12.63-15.96-15.58-33.91-6.64-52.31,7.47-15.38,16.7-29.92,25.25-44.77,21.99-38.16,44.08-76.27,66.06-114.44,8.01-13.92,19.56-22.69,35.48-25.8,18.05-3.53,39.34,4.71,49.02,20.31,10.38,16.73,20.01,33.92,29.88,50.97,20.28,35.04,40.44,70.16,60.79,105.16,4.54,7.82,7.89,15.95,9.09,24.93v8.22ZM141.56,247.31c29.48,0,58.95.11,88.43-.11,4.45-.03,9.23-.8,13.26-2.58,15.1-6.66,20.49-24.37,12.17-38.97-9.12-16-18.39-31.91-27.59-47.86-20.46-35.45-40.95-70.89-61.37-106.36-3.48-6.04-7.99-10.81-14.6-13.39-11.57-4.51-26.38-.84-34.32,13.05-23.33,40.85-47,81.5-70.52,122.23-6.65,11.52-13.54,22.93-19.78,34.68-4.83,9.1-3.91,18.4,1.67,27.02,5.65,8.73,14.06,12.3,24.23,12.29,29.48-.01,58.95,0,88.43,0Z"/>
    <path class="cls-2" d="M156.09,110.2c-1.09,18.79-2.2,37.9-3.31,57.01-.15,2.63-.04,5.31-.47,7.89-.87,5.14-5.27,8.7-10.4,8.74-5.29.05-9.9-3.47-10.5-8.84-.83-7.42-1.08-14.9-1.55-22.36-.89-14.28-1.67-28.58-2.66-42.85-.72-10.49,6.8-18.62,16.44-17.48,6.64.79,11.89,6.21,12.43,12.91.12,1.54.02,3.1.02,4.97Z"/>
    <path class="cls-2" d="M141.56,222.45c-7.96-.2-14.21-6.79-14.01-14.77.2-7.75,6.83-14.07,14.61-13.92,7.92.15,14.04,6.78,13.78,14.93-.24,7.77-6.71,13.95-14.39,13.76Z"/>
  </g>
  <g class="cls-4">
    <path class="cls-2" d="M134,9.93c5.15,0,10.3,0,15.44,0,.66.15,1.32.38,1.99.42,20.61,1.45,39.9,7.35,57.49,18.13,34.14,20.92,55.15,51.09,62.52,90.55.92,4.94,1.38,9.97,2.05,14.95v15.44c-.16.91-.34,1.82-.47,2.73-.82,5.67-1.29,11.42-2.51,17.01-6.88,31.65-23.13,57.58-48.91,77.11-32.07,24.29-68.18,32.35-107.55,24.14-31.52-6.57-57.14-23.09-76.74-48.57-21.16-27.51-29.97-58.84-26.66-93.33,2.68-27.94,13.53-52.61,32.15-73.67C63.2,31.77,88.63,17.39,119.01,11.98c4.96-.88,9.99-1.38,14.98-2.05ZM251.88,141.71c0-60.66-49.5-110.16-110.16-110.16-60.66,0-110.16,49.5-110.16,110.16,0,60.66,49.5,110.16,110.16,110.16,60.66,0,110.16-49.5,110.16-110.16Z"/>
    <path class="cls-2" d="M120.62,170.05c.98-1.36,1.44-2.22,2.09-2.88,24.96-25,49.96-49.96,74.91-74.98,3.43-3.44,7.27-5.12,12.06-3.61,7.09,2.23,9.75,10.87,5.19,16.73-.73.94-1.59,1.79-2.44,2.64-27.58,27.59-55.17,55.18-82.76,82.77-6.38,6.38-12.02,6.38-18.41-.01-13.64-13.64-27.29-27.28-40.92-40.93-4.71-4.72-5.33-10.68-1.67-15.23,3.79-4.72,10.4-5.46,15.13-1.66.87.69,1.67,1.48,2.45,2.27,10.68,10.67,21.35,21.34,32.01,32.02.66.66,1.2,1.45,2.37,2.88Z"/>
  </g>
  <g class="cls-4">
    <path class="cls-2" d="M88.31,230.64c-10.61.1-21.19.22-31.59-2.69C21.22,218.02-1.73,184.2,2.3,147.56c3.8-34.46,30.91-61.91,65.21-65.92,1.9-.22,2.28-1.18,2.76-2.69,9.66-29.89,29.95-48.09,60.88-53.22,36.64-6.08,72.1,17.03,82.57,52.93.62,2.14,1.5,2.82,3.65,3.14,33.9,5.19,59.22,31.1,63.63,64.99,5.33,40.92-25.1,79.45-66.3,83.21-11.88,1.08-23.93.58-35.9.53-5.01-.02-8.84-4.59-8.69-9.56.15-4.98,4.11-8.97,9.27-9.02,9.35-.09,18.7.02,28.05-.04,26.37-.15,48.49-17.7,54.67-43.33,8.28-34.3-17.85-68.16-53.12-68.86-7.32-.15-10.61-2.96-11.91-10.16-4.77-26.5-27.9-45.89-54.82-45.97-27-.08-50.29,19.12-55.21,45.51-1.53,8.22-4.14,10.42-12.57,10.62-27.68.64-51.65,23.23-53.9,50.79-2.36,28.88,16.86,55.02,44.58,60.14,5.88,1.09,11.99,1.05,18.01,1.22,6.91.2,13.83.02,20.74.05,5.91.03,10.13,3.98,10.1,9.4-.03,5.4-4.25,9.26-10.21,9.29-5.16.03-10.32,0-15.48,0Z"/>
    <path class="cls-2" d="M151.42,131.76v3.92c0,37.21,0,74.41,0,111.62,0,1.26.06,2.55-.18,3.78-.89,4.71-5.27,7.99-9.98,7.58-4.58-.4-8.24-4.22-8.51-8.91-.06-.97-.02-1.95-.02-2.92,0-37.11,0-74.22,0-111.33v-3.65c-1.13,1.04-1.84,1.64-2.49,2.3-9.3,9.29-18.59,18.6-27.9,27.88-2.79,2.79-6.12,3.76-9.9,2.49-3.54-1.19-5.6-3.78-6.21-7.44-.49-2.97.35-5.66,2.46-7.78,15.6-15.66,31.21-31.32,46.9-46.9,3.71-3.68,9.19-3.74,12.89-.06,15.7,15.57,31.33,31.2,46.89,46.9,3.73,3.76,3.51,9.55-.13,13.14-3.65,3.58-9.34,3.65-13.14-.1-9.36-9.23-18.61-18.57-27.91-27.87-.74-.74-1.51-1.44-2.77-2.65Z"/>
  </g>
  <g class="cls-4">
    <g>
      <path class="cls-2" d="M130.22,267.63c-53.12,0-99.55-32.58-118.27-83.02C-.13,152.07,2.36,115.31,18.77,83.74c16.38-31.51,44.97-54.61,78.43-63.39,11.42-2.99,22.8-4.51,33.84-4.51,20.96,0,41.55,5.48,61.21,16.28,3.59,1.97,5.99,5.01,6.75,8.54.69,3.21-.08,6.51-2.17,9.29-2.25,2.99-5.49,4.64-9.13,4.64-2.2,0-4.4-.6-6.53-1.77-10.75-5.93-22.18-9.98-33.97-12.02-5.58-.97-11.27-1.45-16.94-1.45-21.95,0-43.85,7.4-61.67,20.82-18.06,13.61-31.12,32.88-36.77,54.26-1.83,6.94-2.99,14.88-3.62,24.83h-.02l-.39,4.58.3.05c.5,24.44,9.6,47.77,25.74,65.92,16.61,18.67,39.58,30.6,64.67,33.59,4.16.5,8.34.75,12.43.75,16.78,0,33.19-4.22,48.75-12.54,1.91-1.02,4.81-2.29,7.76-2.53.26-.02.52-.03.78-.03,4.64,0,9.04,3.45,10.46,8.2,1.6,5.35-.5,10.67-5.36,13.56-9.7,5.77-20.24,10.1-31.33,12.88-10.49,2.62-21.18,3.95-31.79,3.95Z"/>
      <path class="cls-3" d="M30.57,141.77s0,0,0,0c.06.01.09.01.09.01,0,0-.04,0-.09-.01h0Z"/>
    </g>
    <path class="cls-2" d="M230.3,196.39c-3.14,0-6.12-1.26-8.38-3.54-4.6-4.64-4.66-11.67-.12-16.35,4.07-4.2,8.34-8.35,12.47-12.37,1.85-1.8,3.7-3.6,5.54-5.4l1.1-1.09-1.35-4.15h-41.96c-21.62,0-43.24,0-64.85-.02-1.83,0-3.91,0-5.64-.47-5.67-1.53-9.02-6.73-8.33-12.93.62-5.51,5.42-9.86,10.95-9.92,8.78-.09,17.38-.1,23.89-.1,3.8,0,24.22.02,24.22.02h61.25s2.02-3.89,2.02-3.89l-1.31-1.29c-1.85-1.83-3.72-3.64-5.58-5.45-4.11-4-8.37-8.14-12.38-12.34-2.92-3.05-4.04-7.23-3-11.17,1.02-3.89,3.99-6.93,7.94-8.13,1.34-.41,2.65-.61,3.89-.61,2.86,0,5.4,1.09,7.56,3.23,1.85,1.83,3.7,3.66,5.55,5.49,9.16,9.05,18.63,18.4,27.58,27.92,10.27,10.92,10.28,25.01.03,35.9-10.65,11.32-21.95,22.41-32.88,33.14l-.25.25c-2.16,2.12-4.99,3.29-7.97,3.29Z"/>
  </g>
  <g>
    <path class="cls-2" d="M16.14,141.43c0-32.42-.02-64.85,0-97.27.01-19.81,13.71-35.01,33.45-36.18,6.51-.38,13.18,1.16,19.72,2.23,29.68,4.86,59.31,10,89,14.77,19.59,3.15,31.83,17.1,31.85,36.99.01,13.59,0,27.19,0,40.78,0,3.99-1.81,6.97-5.32,8.8-3.32,1.73-6.63,1.46-9.72-.64-3.09-2.1-4.31-5.12-4.3-8.81.04-13.29.02-26.58.02-39.88,0-10.52-4.72-16.25-15.18-18.01-33.72-5.67-67.45-11.34-101.2-16.81-10.78-1.74-18.97,5.62-18.98,16.54-.03,36.55-.01,73.11-.01,109.66,0,28.2,0,56.39,0,84.59,0,12.48,8.02,19.55,20.27,17.56,24.52-3.98,49.02-8.14,73.52-12.23,9.13-1.52,18.25-3.05,27.38-4.59,8.84-1.49,14.16-7.76,14.18-16.78.03-13.9-.03-27.79.03-41.69.02-5.17,3.63-9.19,8.5-9.77,4.85-.58,9.45,2.65,10.55,7.52.26,1.16.25,2.4.25,3.6.02,13.19.02,26.38,0,39.57-.02,19.48-11.82,33.51-31.06,36.75-33.72,5.68-67.45,11.31-101.19,16.87-22.27,3.67-41.71-12.83-41.74-35.42-.05-32.73-.01-65.45-.01-98.18Z"/>
    <path class="cls-2" d="M238.41,151.32h-3.89c-34.83,0-69.66,0-104.49,0-6.55,0-10.86-4.07-10.69-10.01.13-4.82,3.83-8.8,8.66-9.26,1.1-.11,2.21-.05,3.32-.05,34.43,0,68.85,0,103.28,0h3.86c-1.06-1.45-1.8-2.47-2.55-3.48-8.03-10.7-16.08-21.4-24.09-32.12-2.84-3.8-3.06-7.93-.77-11.53,2.09-3.28,5.92-4.9,9.95-4.22,3.24.55,5.25,2.73,7.1,5.2,12.37,16.51,24.79,32.97,37.09,49.53,1.14,1.53,2.19,3.62,2.15,5.42-.06,2.36-.68,5.11-2.05,6.96-12.48,16.92-25.16,33.7-37.82,50.49-3.18,4.23-7.31,5.59-11.62,4.01-4.05-1.49-6.85-5.39-6.24-9.61.31-2.17,1.36-4.44,2.67-6.23,7.79-10.63,15.77-21.13,23.67-31.67.71-.95,1.39-1.93,2.46-3.42Z"/>
  </g>
</svg>