<?xml version="1.0" encoding="UTF-8"?>
<svg xmlns="http://www.w3.org/2000/svg" version="1.1" viewBox="0 0 104.96 73.44">
  <!-- Generator: Adobe Illustrator 28.6.0, SVG Export Plug-In . SVG Version: 1.2.0 Build 709)  -->
  <g>
    <g id="Layer_1">
      <g>
        <path d="M47.74,58.36h-26.26c-.57-.25-1.19-.43-1.69-.78-1.11-.78-1.53-1.93-1.53-3.27,0-5.68,0-11.35,0-17.03,0-.14-.03-.3.03-.41.16-.31.29-.69.55-.88.25-.19.65-.25.98-.25,5.96-.01,11.91,0,17.87,0,.15,0,.31,0,.46,0-.1-.12-.2-.16-.3-.2-2.29-.84-4.58-1.67-6.88-2.51-3.98-1.45-7.97-2.9-11.95-4.35-.9-.33-1.21-.96-.89-1.85.53-1.47,1.06-2.94,1.6-4.4.31-.83.79-1.54,1.56-2.02,1.12-.71,2.3-.79,3.53-.33,1.24.46,2.49.9,3.7,1.34.03-.59,0-1.18.09-1.75.32-2.22,2.27-4.03,4.52-4.24,2.28-.21,4.55,1.16,5.24,3.29.33,1.02.43,2.13.62,3.2.1.54.17,1.08.26,1.68.98-.87,1.89-1.67,2.8-2.47,1.03-.9,2.21-1.36,3.59-1.35,3.47.04,5.93,3.71,4.63,6.93-.33.81-.82,1.48-1.48,2.1.15.06.26.1.38.14,1.22.45,2.43.9,3.65,1.33,2.05.72,3.08,2.82,2.44,4.73-.56,1.66-1.17,3.31-1.79,4.96-.24.65-.91.9-1.6.68-.3-.1-.6-.21-.95-.34v.51c0,2.61,0,5.23,0,7.84,0,2.07,0,4.14-.03,6.21-.02,1.01-.49,1.84-1.22,2.53-.56.53-1.25.76-1.96.98ZM20.8,38.29c0,.18,0,.31,0,.45,0,5.21,0,10.42,0,15.64,0,1.01.47,1.48,1.49,1.48,2.68,0,5.37,0,8.05,0h.44v-17.56h-9.98ZM38.42,38.27v17.55c.07.01.11.03.15.03,2.85,0,5.7,0,8.56,0,.77,0,1.27-.54,1.28-1.31,0-.62,0-1.23,0-1.85,0-4.29,0-8.58,0-12.87,0-.36-.12-.5-.44-.61-.69-.22-1.36-.51-2.05-.73-.36-.12-.76-.2-1.14-.2-1.96-.02-3.91,0-5.87,0h-.5ZM34.4,26.28c-.06-.04-.08-.06-.11-.07-3.49-1.27-6.98-2.56-10.48-3.82-.72-.26-1.37.07-1.65.8-.25.65-.47,1.31-.71,1.96-.18.49-.36.98-.55,1.5,3.96,1.44,7.86,2.86,11.79,4.29.58-1.58,1.14-3.12,1.7-4.68ZM39.79,33.54c3.96,1.44,7.85,2.86,11.77,4.29.05-.12.1-.22.14-.32.36-.99.73-1.99,1.09-2.99.35-.97.07-1.56-.88-1.9-3.35-1.22-6.71-2.44-10.06-3.66-.11-.04-.23-.07-.35-.1-.57,1.57-1.13,3.1-1.7,4.68ZM33.39,55.83h2.42v-17.53h-2.42v17.53ZM36.83,24.46c-.24-1.57-.43-3.03-.68-4.48-.21-1.17-1.27-1.99-2.53-2.03-1.1-.03-2.18.8-2.47,1.89-.31,1.17.19,2.47,1.27,2.94,1.41.61,2.88,1.1,4.41,1.68ZM40.57,25.81c1.47.53,2.86,1.06,4.28,1.52,1.17.38,2.41-.19,2.98-1.27.53-1.01.29-2.37-.53-3.07-1.03-.87-2.36-.95-3.33-.14-1.13.94-2.21,1.93-3.38,2.96ZM37.42,32.68c.58-1.59,1.14-3.13,1.71-4.71-.8-.29-1.56-.57-2.35-.85-.58,1.6-1.14,3.15-1.71,4.71.8.29,1.54.56,2.35.85Z"/>
        <g>
          <path d="M104.96,39.6c-.4,2-.63,4.05-1.23,5.99-4.16,13.38-13.16,21.37-26.95,23.94-.3.06-.6.13-.91.15-1.47.12-2.82.1-3.67,1.83-.65,1.33-2.19,1.88-3.75,1.92-.2,0-.41.01-.61.01-20.69,0-41.38.01-62.07-.04-1.1,0-2.31-.33-3.29-.85-1.61-.86-2.41-2.39-2.41-4.24-.01-21.07-.01-42.13,0-63.2C.07,2.41,2.23.19,4.95.04c.37-.02.75-.02,1.13-.02C26.56.02,47.05.03,67.53,0c2.49,0,4.36.85,5.52,3.12.13.26.64.44.99.47,7.78.64,14.61,3.5,20.33,8.84,5.96,5.57,9.42,12.44,10.39,20.55.04.3.14.59.21.89v5.74ZM69.95,36.73c0-10.28,0-20.55,0-30.83,0-1.85-.52-2.38-2.35-2.38-20.55,0-41.1,0-61.65,0-1.82,0-2.4.57-2.4,2.37,0,20.55,0,41.1,0,61.65,0,1.81.58,2.38,2.39,2.38,20.55,0,41.1,0,61.65,0,1.84,0,2.36-.52,2.36-2.37,0-10.28,0-20.55,0-30.83ZM73.6,66.36c10.06-.89,18.03-5.32,23.27-13.87,6.39-10.43,6.38-21.2-.06-31.61-5.25-8.49-13.19-12.89-23.13-13.77-.08.26-.14.35-.14.44,0,4.3,0,8.6-.03,12.9,0,.63.34.66.82.75,7.59,1.32,13.12,7.88,13.12,15.53,0,7.65-5.5,14.19-13.12,15.51-.68.12-.82.37-.82.97.02,4.1,0,8.19.01,12.29,0,.23.04.46.08.85ZM73.52,24.74c0,.79.05,1.57-.01,2.34-.06.76.17,1.11.96,1.36,4.07,1.3,6.55,5.31,5.93,9.48-.54,3.61-2.63,5.96-6.04,7.19-.31.11-.77.37-.79.6-.09,1-.04,2.02-.04,3.04,5.97-.78,10.44-6.03,10.39-12.08-.04-6.03-4.59-11.31-10.4-11.93ZM73.62,31.99v9.48c2.01-.65,3.31-2.56,3.31-4.74,0-2.19-1.28-4.08-3.31-4.74Z"/>
          <path d="M97.99,36.93c-.03,3.15-.63,6.35-1.84,9.42-.32.82-.9,1.27-1.8,1.22-.86-.05-1.43-.56-1.57-1.36-.08-.46.07-1.01.24-1.47,1.13-3.16,1.61-6.39,1.35-9.74-.41-5.26-2.45-9.79-5.97-13.69-.09-.1-.19-.2-.28-.3-.8-.89-.84-1.93-.1-2.64.75-.72,1.79-.66,2.63.2,2.27,2.32,4.01,4.99,5.27,7.97,1.38,3.27,2.07,6.69,2.08,10.4Z"/>
          <path d="M80.62,11.87c1.54.83,3.14,1.58,4.6,2.53.66.44.63,1.34.15,2.04-.5.72-1.22,1.04-2.05.69-1.28-.54-2.54-1.15-3.78-1.8-.8-.42-1-1.21-.76-2.03.24-.8.85-1.2,1.7-1.19.04-.08.09-.16.13-.25Z"/>
        </g>
      </g>
    </g>
  </g>
</svg>