<?xml version="1.0" encoding="UTF-8"?>
<svg xmlns="http://www.w3.org/2000/svg" version="1.1" viewBox="0 0 283.5 283.5">
  <!-- Generator: Adobe Illustrator 28.6.0, SVG Export Plug-In . SVG Version: 1.2.0 Build 709)  -->
  <g>
    <g id="Layer_1">
      <g>
        <path d="M219.4,205.4c-7.6,1.8-15,3.7-22.5,5.4-8.8,2.1-15.6-3.8-14.9-12.8.3-4.7,3.2-8.5,8.1-9.7,16.6-4.1,33.3-8.2,50-12,6.5-1.5,12.5,2.5,14,8.9,4,16.4,7.9,32.8,11.8,49.2,1.6,6.6-2,12.2-8.5,13.8-6.8,1.7-12.6-1.7-14.3-8.5-1.5-5.8-2.8-11.6-4.3-17.4-.1-.6-.4-1.2-.6-1.9-3.3,3.5-6.2,7-9.5,10.2-27.1,26.4-59.7,38.4-97.4,35.7-54.6-3.9-101.6-46.3-111.4-100-.7-3.6-1.3-7.2-1.6-10.9-.5-6.8,4.1-12.1,10.7-12.6,6.4-.6,11.7,3.8,12.6,10.5,2.6,21.6,10.6,40.8,25.5,56.8,22,23.7,49.3,34.9,81.6,32.7,27.8-1.9,50.8-13.9,69.1-34.9.5-.6,1-1.3,1.5-1.9,0-.1,0-.3.2-.8Z"/>
        <path d="M64.2,86c5.9-1.4,11.9-2.9,17.8-4.3,1.5-.4,3-.7,4.6-1.1,6.9-1.5,12.5,2,14.2,8.8,1.6,6.5-1.9,12.3-8.6,14.1-5.7,1.5-11.4,2.8-17.1,4.2-10.2,2.4-20.3,4.9-30.5,7.3-7.7,1.8-13.5-1.7-15.3-9.4-3.9-16-7.8-32.1-11.6-48.1-1.3-5.4,1.5-10.7,6.4-13,4.8-2.3,10.8-1.1,13.9,3.1,1.4,1.8,2.3,4.2,2.9,6.4,1.5,5.5,2.7,11.2,4.1,17.1,3.1-3.4,6-6.6,9-9.7,18.6-18.7,41.3-29.6,67-34.5,53.2-10.2,127.1,22.4,142.4,97.3.7,3.3,1.1,6.7,1.6,10.1,1.2,7.7-2.6,13.4-9.6,14.4-7.6,1.1-12.9-3.3-13.8-11.4-1.2-10.5-3.7-20.6-8.3-30.1-16.1-33.6-42.6-53.7-79.6-58.2-35.6-4.3-65.2,8.2-88.7,35.2-.4.4-.7.8-1,1.3l.2.6Z"/>
      </g>
    </g>
  </g>
</svg>