<?xml version="1.0" encoding="utf-8"?>
<!-- Generator: Adobe Illustrator 22.0.0, SVG Export Plug-In . SVG Version: 6.00 Build 0)  -->
<svg version="1.1" id="Layer_1" xmlns="http://www.w3.org/2000/svg" xmlns:xlink="http://www.w3.org/1999/xlink" x="0px" y="0px"
	 viewBox="0 0 779.6 273" style="enable-background:new 0 0 779.6 273;" xml:space="preserve">
<style type="text/css">
	.st0{fill:none;}
	.st1{enable-background:new    ;}
	.st2{display:none;}
	.st3{display:inline;}
</style>
<g>
	<path d="M759.6,210.8c-2.7,5.7,3.3,5.8,4.1,8.9c0.7,2.6-4.4,4-1.6,7.4c0.1,0.1-1.7,2.5-2.9,2.9c-5,1.5-10.2,3.5-15.3,3.6
		c-20.3,0.2-40.7-0.7-61-0.4c-21.3,0.3-42.6,0.8-63.9,2.5c-34.1,2.8-68.2,6.6-102.2,10.3c-45.5,4.8-90.9,10.1-136.4,14.8
		c-16.4,1.7-32.9,2.3-49.3,3.4c-14.9,1-29.9,2.4-44.8,3.1c-18,0.9-36,1.1-53.9,1.9c-15.1,0.7-30.2,2.6-45.3,2.9
		c-20.5,0.3-41-0.3-61.4-0.7c-11.7-0.2-23.3-1.3-35-1.3c-9.9,0-17.5-5.4-25.7-9.5c-5.3-2.6-9.8-6.8-14.8-9.9c-1.4-0.9-3.6-0.3-5.3-1
		s-3-2.1-4.5-3.2c1.4-1.2,2.7-3.5,4.2-3.6c18.5-1.6,36.8-4.6,55.7-2.5c15.2,1.7,30.6,1.4,45.9,1.1c23.5-0.5,46.9-1.7,70.4-2.7
		c25.6-1,51.2-1.8,76.8-3.3c26-1.5,52.1-3.2,78.1-5.7c32.9-3.2,65.7-7.3,98.6-10.8c27.3-2.9,54.6-4.9,81.8-8.5
		c39.7-5.3,79.6-7.1,119.5-7.8c23.5-0.4,47,0.3,70.4,1.5C747.7,204.5,753.4,208.4,759.6,210.8z"/>
</g>
<rect x="9.5" y="20" transform="matrix(0.9976 -6.975179e-02 6.975179e-02 0.9976 -6.5367 27.8113)" class="st0" width="770.9" height="175"/>
<g class="st1">
	<path d="M32.9,206.6c-2.1-4-3.7-8.7-4.8-14.1c-1.2-5.4-2.1-13.1-2.8-23c-0.7-9.9,0.2-23.5,2.8-40.6l-10.5,0.7
		c-1.9,0.1-2.8-0.6-3-2.1c-0.3-3.7-0.1-6.8,0.4-9.3c0.5-2.4,2-5.3,4.4-8.6l5.6-0.4c2.2-0.2,4.5-0.4,7-0.7
		c5.8-24.4,12.5-36.8,20.3-37.4c6.2-0.3,10.8,3.4,13.8,10.9c0.8,2.1,1.6,4.4,2.6,6.8l-8.4,17.4c10.9-0.4,17.7-0.8,20.6-1
		c2.9-0.2,4.4,0,4.7,0.5c0.3,0.5,0.4,1.3,0.5,2.4c0.2,2.8-0.2,6.3-1.2,10.6c-1,4.3-2.4,6.4-4.1,6.4l-23.3,0.5
		c-1.9,19.1-2.5,34.9-1.6,47.3c0.9,12.4,3.1,18.5,6.6,18.2c2.9-0.2,8.1-3,15.5-8.4c7.4-5.4,12.7-10.5,15.8-15.2
		c3.1-4.7,5.7-7.2,7.9-7.3c2.2-0.2,3.4,2.4,3.8,7.7c0.4,5.3-1.1,10.8-4.4,16.5c-3.3,5.8-7.7,11.1-13,16.1c-5.3,5-11.4,9.2-18,12.6
		c-6.7,3.4-12.6,5.3-17.7,5.7s-9.1-0.6-12-2.8C37.5,213.7,35,210.6,32.9,206.6z"/>
	<path d="M126.7,110c0.7,10.4-0.3,22.3-3.1,35.7c0.7,4.9,1.1,9.7,1.5,14.4c1,9.9,2.7,16.6,5.1,20.2c1.7,1.9,3.8,2.8,6.3,2.6
		c4.8-0.3,10.5-4.2,17.2-11.5c-6.3-12.5-9.8-23.9-10.6-34.3c-1.5-21.2,7.8-32.5,27.8-33.9c6.8-0.5,12.7,1.1,17.5,4.7
		c4.8,3.6,7.5,8.4,7.9,14.3c0.9,12.4-5,27.8-17.6,46.1c6.2,6.4,11.1,10,14.8,10.9c5.1-0.4,12.1-10.3,21-30
		c-2.3-6.8-3.7-13.3-4.2-19.3c-0.8-11,0.4-19.2,3.4-24.5c3.7-6.8,10.4-10.5,20.1-11.2c9.7-0.7,15.4,2.9,17.2,10.7
		c0.5,2.3,0.8,4.8,1,7.4c0.7,9.9-3.9,24-13.6,42.3c4.3,5.3,8.1,8.4,11.6,9.2c7.1-0.5,13-3.3,17.6-8.5c1.7-1.8,3.2-3.5,4.4-5.1
		c1.2-1.6,2.5-2.4,3.9-2.5c2.2-0.2,3.4,2.3,3.8,7.4c0.7,9.5-1.6,16.6-6.9,21.5c-5.3,4.9-12.4,7.6-21.4,8.3
		c-9,0.6-17.1-3.2-24.4-11.4c-7.3,11.1-13.5,18.9-18.4,23.5c-9.1,8.6-16.3,13.1-21.7,13.4c-2.6,0.2-6.2-1.8-10.6-5.9
		c-4.4-4.1-8.9-9.6-13.4-16.5c-7,7.5-13.9,13.7-20.9,18.7c-7,5-12.9,7.7-17.9,8c-9,0.6-17.9-18.4-26.9-57
		c-3.1-13.2-4.8-22.2-5.2-27.2c-0.4-10.3,0.5-17.5,2.7-21.7c3.1-5.2,9.6-8.1,19.5-8.8c3.7-0.3,6.7,0.7,8.8,2.8
		C125.3,105,126.5,107.4,126.7,110z M169.4,149.1c4.6-8.3,6.7-14.8,6.3-19.5c-0.3-4.7-2.1-7-5.4-6.7c-2.2,0.2-3.4,1.4-3.8,3.9
		c-0.4,2.4-0.4,5.6-0.2,9.5C166.7,140.1,167.7,144.4,169.4,149.1z"/>
	<path d="M324.5,199.7c-22.2,1.7-37.8-5.5-47.1-21.7c-3.2-5.7-5.1-13-5.7-21.9c-0.6-8.9-0.5-18.5,0.3-28.6c1.7-20.4,6.4-39.4,14-57
		c3.9-9,8.4-16.8,13.5-23.4c11.3-14.5,24.5-22.2,39.5-23.1c6.7-0.5,12,1,16.1,4.4c4.1,3.4,6.3,8.5,6.8,15.3c0.5,6.8-1.1,13.8-4.6,21
		c-3.5,7.2-8.2,14.7-14,22.5c-5.8,7.8-12.2,16-19.2,24.6c-7,8.6-13.9,17.9-20.5,27.8l0.6,9.3c0.6,8.7,2.9,14.9,6.9,18.7
		c4,3.8,8.5,5.5,13.4,5.1c13.3-0.9,24.6-8.3,34-22.2c3.8-5.7,6.8-8.7,9-8.8c2.2-0.2,3.4,2.4,3.8,7.7c0.4,5.3-0.7,10.8-3.2,16.5
		c-2.5,5.7-5.9,11-10.2,15.9c-4.3,4.9-9.4,9-15.3,12.4C337,197.3,330.9,199.2,324.5,199.7z M328.3,74c3-4.3,5.3-8.1,6.9-11.5
		c1.6-3.4,2.3-6.8,2.1-10.3c-0.2-3.5-1.6-5.1-4.1-5c-5.4,0.4-11,6.4-16.8,18c-5.8,11.6-9.7,26.6-11.7,45c4.7-8.4,9.1-15.5,13.1-21.2
		C321.9,83.2,325.4,78.2,328.3,74z"/>
	<path d="M388.9,195.2c-15.5,1.1-24.3-12.9-26.3-41.8c-1.1-15.8-0.2-30.3,2.8-43.4c4.7-20.3,10.8-30.7,18.4-31.2
		c4.5-0.3,8.3,2.5,11.3,8.3c2.5,4.5,3.8,9,4,13.5c0.4,6.2-0.7,17.3-3.3,33.2c-2.6,13.9-3.8,22.5-3.6,25.7c0.2,3.3,1.2,5.4,2.9,6.6
		c1.7,1.1,3.7,1.6,5.9,1.5c2.2-0.2,5-1.8,8.2-5c3.2-3.2,6.4-6.6,9.6-10.4c3.2-3.7,6.1-7.2,8.7-10.3c2.7-3.1,4.5-4.8,5.6-4.8
		c2.2-0.2,3.4,2.4,3.8,7.7c0.8,10.8-4,21.8-14.2,32.9C412.6,188.6,401.3,194.5,388.9,195.2z M389,59.5c-4.6-5.9-7.2-12.4-7.7-19.6
		c-0.5-7.1,0.2-13.1,2.1-18c1.9-4.9,3.8-8.5,5.7-10.9c1.9-2.4,4.1-3.7,6.7-3.9c4.3-0.3,8.5,2.6,12.5,8.8c4,6.2,6.2,11.4,6.5,15.8
		c0.6,8.1-1.8,14.6-7.2,19.5C402.3,56.2,396.1,59,389,59.5z"/>
	<path d="M451.4,73.5c5.6-0.4,11.2,4.6,16.9,14.9c6.8-8.1,15.5-12.5,26.3-13.3c10.8-0.8,19,1,24.8,5.4c5.8,4.3,8.9,10.8,9.5,19.4
		s0.1,17.4-1.5,26.4c-1.6,9-2.8,15.4-3.6,19.3c-0.7,3.9-1,7-0.9,9.5c0.2,2.5,1.1,3.7,2.8,3.5c2.3-0.2,5.1-1.8,8.3-5
		c3.2-3.2,6.4-6.6,9.6-10.4c3.2-3.7,6.1-7.2,8.7-10.3c2.7-3.1,4.5-4.8,5.6-4.8c2.2-0.2,3.4,2.4,3.8,7.7c0.8,10.8-3.9,21.7-13.8,32.5
		c-17.2,11.8-28.3,17.9-33.3,18.2c-0.5,0-0.8,0-0.9-0.2c-12.4,0.9-19.3-8.6-20.7-28.5c-0.6-8.5-0.3-16.4,0.8-23.6
		c1.1-7.2,2-12.5,2.5-15.8c0.5-3.3,0.7-6.7,0.5-10.1c-0.4-5.6-3.8-8.1-10.2-7.7c-6.4,0.4-12.2,5.6-17.4,15.6
		c-5.1,9.9-8.4,20.1-9.7,30.5l0.1,1.6c0.4,5.3,1.6,10.6,3.6,16.1c2,5.5,3.1,9.3,3.3,11.5c0.4,5.3-5.9,10.9-18.7,17
		c-2,0.9-3.7,1.4-5.3,1.5c-3.9,0.3-6.7-1.6-8.4-5.5c-1.8-3.9-2.9-10.1-3.5-18.7c-1.5-22-1.8-37.9-0.8-47.8
		c1.3-14.7,5.6-28.7,13-41.8C445.3,76.2,448.2,73.8,451.4,73.5z"/>
	<path d="M641.9,121.7c2.8-0.2,4.3,2.1,4.7,6.8c0.3,4.7-0.5,9.9-2.5,15.5c-2,5.6-5.3,11.1-9.8,16.5c-4.5,5.4-10.5,10.1-17.8,14.2
		c-7.3,4.1-16.2,6.5-26.5,7.2c-10.3,0.7-19.5-1.7-27.7-7.3c-8.2-5.6-12.7-14.1-13.5-25.7c-0.8-11.5,0.3-22.1,3.3-31.8
		c3-9.6,7.2-18.1,12.7-25.3c5.5-7.2,11.9-13,19.2-17.3c7.3-4.3,14.4-6.7,21.2-7.2c11.9-0.8,18.2,3.5,18.9,12.9
		c0.4,5.4-0.4,9.8-2.5,13.3c-2,3.4-4.2,5.2-6.5,5.4c-3.1,0.2-5.9-0.7-8.4-2.7c-2.5-2-5.1-2.9-7.9-2.8c-2.8,0.1-5.4,1.7-7.7,4.6
		c-2.4,3-4.2,6.7-5.6,11.1c-2.8,8.9-3.8,19.2-3,30.8c0.5,5.6,3.4,9.6,8.5,12c3.5,1.6,7.6,2.3,12.3,2.1c4.7-0.2,9-2.1,13-5.5
		c4-3.4,7.7-7,11-10.9c3.3-3.9,6.2-7.5,8.7-10.8C638.5,123.5,640.5,121.8,641.9,121.7z"/>
	<path d="M710.2,93.5c-0.4-5.6-3.9-8.1-10.5-7.7c-6.6,0.5-12.7,6-18.3,16.6c-5.6,10.6-8.9,21.2-9.7,31.9c0.6,3.5,1.1,7.1,1.7,10.6
		c0.6,3.5,1,7,1.2,10.4c0.6,8.2-1.7,14-7,17.3c-2.4,1.6-4.7,3-6.8,4.4c-2.2,1.4-4.7,2.2-7.7,2.4c-2.9,0.2-5.7-1.6-8.2-5.4
		c-2.5-3.8-4.1-9.9-4.7-18.2c-1.6-23.4-1.4-43.8,0.9-61.3c3.4-27,11.9-56.3,25.4-87.7c1.9-4.3,4.9-6.6,9.1-6.8
		c4.2-0.2,7.8,2.5,10.8,8c3,5.6,4.6,10.3,4.8,14.1c0.2,3.9-0.2,7.7-1.1,11.4c-0.9,3.7-2.1,7.4-3.7,11c-1.5,3.6-3.3,7.3-5.3,11.1
		c-2,3.8-3.9,7.9-5.8,12.2l-2.3,17c5.3-10.5,13-17.8,23-21.9c3.6-1.5,7.7-2.4,12.2-2.7c10.5-0.7,18.7,1.1,24.4,5.4
		c5.8,4.4,8.9,10.8,9.5,19.4s0.1,17.4-1.5,26.4c-1.6,9-2.8,15.4-3.6,19.3c-0.7,3.9-1,7-0.9,9.5c0.2,2.5,1.1,3.7,2.8,3.5
		c2.3-0.2,5.1-1.8,8.3-5c3.2-3.2,6.4-6.6,9.6-10.4c3.2-3.7,6.1-7.2,8.7-10.3c2.7-3.1,4.5-4.8,5.6-4.8c2.2-0.2,3.4,2.4,3.8,7.7
		c0.8,10.8-3.9,21.7-13.8,32.5c-17.2,11.8-28.3,17.9-33.3,18.2c-0.5,0-0.8,0-0.9-0.2c-12.4,0.9-19.3-8.6-20.7-28.5
		c-0.6-8.5-0.3-16.4,0.8-23.6c1.1-7.2,2-12.5,2.5-15.8C710.3,100.3,710.4,96.9,710.2,93.5z"/>
</g>
<g class="st2">
	<g class="st3">
		<path d="M98.8,285.8c89.5,2.3,179.2,1.3,268.5-6.3c88.4-7.5,176.1-21.1,264.6-27.5c49.4-3.6,99.1-4.8,148.5-1.7
			c6.5,0.4,2-11.7,0.8-14.4c-1.8-4.1-4.1-8.1-7-11.5c-1.7-2-4.3-5.1-7.1-5.3c-88.5-5.7-176.9,3-264.7,13.1
			c-43.9,5-87.8,10.4-131.8,14.5c-44.7,4.2-89.5,6.8-134.3,8c-50.2,1.4-100.5,1.1-150.8-0.2c-6.5-0.2-2.1,11.6-0.8,14.4
			c1.8,4.1,4.1,8.1,7,11.5C93.3,282.5,96.1,285.8,98.8,285.8L98.8,285.8z"/>
	</g>
</g>
</svg>
