<?xml version="1.0" encoding="UTF-8"?>
<svg xmlns="http://www.w3.org/2000/svg" version="1.1" viewBox="0 0 28.4 28.4">
  <defs>
    <style>
      .cls-1 {
        display: none;
      }
    </style>
  </defs>
  <!-- Generator: Adobe Illustrator 28.6.0, SVG Export Plug-In . SVG Version: 1.2.0 Build 709)  -->
  <g>
    <g id="Layer_1">
      <g class="cls-1">
        <path d="M11.5,16.8v-.4c0-2.6,0-5.3,0-7.9s.5-2.8,1.6-3.7c.4-.3.9-.6,1.4-.8,1.4-.6,2.8-1.1,4.2-1.6,2.5-1,5,.4,5.5,3,.4,1.8-.8,3.9-2.7,4.6-2.6,1-5.3,2.1-7.9,3.1-.2,0-.3.2-.3.4,0,2.4,0,4.9,0,7.3s-1.8,4.9-4.4,5.4c-2.9.6-5.9-1.5-6.3-4.4-.5-3,1.4-5.7,4.4-6.3,1.5-.3,2.9,0,4.1,1,0,0,.2.1.3.2h0ZM13.4,11.1c.1,0,.2,0,.3,0,2.4-1,4.9-1.9,7.3-2.9.2,0,.4-.2.6-.3.9-.7,1.2-1.9.7-2.8-.5-1-1.7-1.4-2.7-1-1.5.6-2.9,1.1-4.4,1.7-.9.4-1.6,1.1-1.7,2-.1,1.1,0,2.2-.1,3.4ZM4.5,20.9c0,1.9,1.6,3.5,3.5,3.5,1.9,0,3.5-1.6,3.5-3.5,0-1.9-1.6-3.5-3.5-3.5-1.9,0-3.5,1.6-3.5,3.5Z"/>
        <path d="M20.1,19.4v-2.5c0-.1,0-.3,0-.5,0-.4.5-.7.9-.7.4,0,.8.3.9.7,0,.1,0,.3,0,.4v2.6h2.7c.6,0,1,.4,1,1s-.4.9-1,1h-2.7c0,.1,0,.2,0,.3v2.4c0,.5-.3.8-.7,1-.4.1-.8,0-1-.4-.1-.2-.2-.5-.2-.7,0-.8,0-1.5,0-2.3v-.4h-.3c-.8,0-1.6,0-2.4,0-.7,0-1.2-.6-1-1.3.1-.4.5-.6,1-.6h2.7,0Z"/>
      </g>
      <g class="cls-1">
        <path d="M7.7,22c.2,1.1.8,1.9,1.6,2.5.8.6,1.8,1,2.8,1h8.6c2.2,0,3.9-1.4,4.4-3.6,0-.3,0-.6,0-.9v-3.8c0-.6.4-.9.9-.9s.9.4.9.9v4c0,2.9-2.2,5.4-5,5.9-.4,0-.8.1-1.2.1-2.8,0-5.6,0-8.5,0-3.1,0-5.8-2.1-6.3-5.2,0,0,0,0,0-.1-1-.1-1.9-.5-2.7-1.1-1.6-1.2-2.5-2.9-2.5-4.9,0-2.9,0-5.9,0-8.9S2.8,1.6,5.8,1.1c.3,0,.6,0,.9,0h8.9c2.9,0,5.4,2.1,6,5,0,0,0,.2,0,.3,1,.2,2,.5,2.8,1.1,1.6,1.2,2.5,2.9,2.5,4.9v.5c0,.5-.4.8-.9.8s-.9-.4-.9-.8c0-.9-.1-1.8-.5-2.6-.6-1.1-1.8-2-3-2.2v.3c0,2.4,0,4.9,0,7.3,0,2.9-2,5.6-5.1,6.2-.3,0-.7,0-1,0h-7.8ZM19.9,11.6v-4.3c0-.3,0-.6,0-.9-.4-2.2-2.2-3.6-4.4-3.6H6.8c-.3,0-.6,0-.9,0-2.2.4-3.6,2.2-3.6,4.4v8.6c0,.3,0,.6,0,.9.4,2.2,2.2,3.6,4.4,3.6h8.6c.3,0,.6,0,.9,0,2.1-.4,3.6-2.2,3.6-4.4v-4.3h0Z"/>
        <path d="M10.2,12.4h-1.4c-1.3,0-1.7-.2-1.7-.9s.4-.9,1.7-.9h1.4v-2.1c0-.1,0-.3,0-.4.1-.4.5-.7,1-.6.4,0,.7.4.7.9v2.2h2.2c.5,0,.9.4.9.9s-.4.9-.9.9h-2.1c0,.1,0,.2,0,.3v1.9c0,.5-.4.9-.9.9-.5,0-.9-.4-.9-.9v-2.2h0Z"/>
      </g>
      <g class="cls-1">
        <path d="M7.6,13.4h-3.2c-1.4,0-2.5-1.1-2.5-2.5v-6.5c0-1.4,1.1-2.5,2.5-2.5h6.5c1.4,0,2.5,1.1,2.5,2.5v6.5c0,1.4-1.1,2.4-2.4,2.4s-2.2,0-3.3,0ZM11.7,7.7v-3.2c0-.6-.3-.9-.9-.9h-6.3c-.6,0-.9.3-.9.9v6.3c0,.6.3.9.9.9h6.3c.6,0,.9-.3.9-.9v-3.1h0Z"/>
        <path d="M20.7,13.4h-3.2c-1.4,0-2.5-1.1-2.5-2.5v-6.5c0-1.4,1.1-2.5,2.5-2.5h6.5c1.4,0,2.5,1.1,2.5,2.5v6.5c0,1.4-1.1,2.4-2.5,2.4h-3.3,0ZM20.7,3.6h-3.2c-.6,0-.9.3-.9.9v6.3c0,.6.3.9.9.9h6.3c.6,0,.9-.3.9-.9v-6.3c0-.6-.3-.9-.9-.9h-3.1,0Z"/>
        <path d="M2,20.7v-3.2c0-1.4,1.1-2.5,2.5-2.5h6.4c1.4,0,2.5,1.1,2.5,2.5v6.5c0,1.4-1.1,2.5-2.5,2.5h-6.5c-1.4,0-2.5-1.1-2.5-2.5v-3.2h0ZM11.7,20.7v-3.1c0-.6-.3-.9-.9-.9h-6.3c-.6,0-.9.3-.9.9v6.3c0,.6.3.9.9.9h6.3c.6,0,.9-.3.9-.9v-3.1Z"/>
        <path d="M15,20.7v-3.2c0-1.4,1.1-2.5,2.5-2.5h6.5c1.4,0,2.5,1.1,2.5,2.5v6.5c0,1.4-1.1,2.5-2.5,2.5h-6.5c-1.4,0-2.4-1.1-2.4-2.5v-3.3h0ZM24.8,20.7v-3.2c0-.6-.3-.9-.9-.9h-6.3c-.6,0-.9.3-.9.9v6.3c0,.6.3.9.9.9h6.3c.6,0,.9-.3.9-.9v-3.1h0Z"/>
      </g>
      <g>
        <path d="M14.1,22.6c-.5.3-1,.5-1.5.8-.8.4-1.6.3-2.3-.4-1.6-1.6-3.2-3.2-4.9-4.9-.6-.6-.8-1.5-.4-2.3.3-.5.5-1,.8-1.6-.6-.2-1.1-.4-1.6-.5-.7-.2-1.4-.5-2.1-.7-1-.3-1.3-1.5-.5-2.2,1.3-1.3,2.7-2.7,4.3-3.8.4-.3.8-.5,1.2-.8,1-.5,2-.4,3,0,.5.1,1,.3,1.4.5.2,0,.3,0,.4,0,2.3-2,4.9-3.5,7.8-4.5,1.8-.6,3.7-1,5.7-1,1.2,0,2.1.8,2,2.1-.2,4.8-2,9-5,12.7-.1.2-.3.4-.4.5-.2.2-.2.4-.1.7.2.6.4,1.1.6,1.7.3,1.1.1,2.1-.4,3.1-.7,1.2-1.7,2.3-2.6,3.3-.6.6-1.1,1.2-1.7,1.7-.8.8-1.9.5-2.2-.5-.4-1.2-.8-2.3-1.1-3.5,0,0,0-.2,0-.3ZM25.7,3.5c0-.1,0-.2,0-.4,0-.4,0-.5-.5-.5-.5,0-.9,0-1.4.1-3.4.4-6.5,1.7-9.3,3.7-3.6,2.6-6.2,6.1-8.1,10.1,0,.2,0,.3.1.5,1.6,1.6,3.2,3.2,4.8,4.8.2.2.3.2.5,0,.5-.2.9-.5,1.4-.7,3-1.7,5.7-3.7,7.9-6.4,2.6-3.3,4.2-7,4.5-11.3ZM20.4,18s0,0,0,0c-1.4,1.4-3,2.6-4.7,3.6-.1,0-.1.2,0,.3.3,1,.6,1.9.9,2.9,0,.2.1.4.2.7,0,0,.1-.1.2-.1.6-.6,1.2-1.2,1.7-1.9.7-.8,1.3-1.6,1.9-2.4.2-.3.3-.7.4-1.1,0-.7-.2-1.3-.4-2ZM10.4,8c-.5-.1-.9-.3-1.3-.4-.6-.2-1.2,0-1.8.3-.1,0-.3.2-.4.3-1.5,1-2.7,2.2-4,3.5,0,0,0,0,0,0,1.2.4,2.5.8,3.7,1.2,1.1-1.8,2.3-3.4,3.8-4.9Z"/>
        <path d="M3.8,24.6c1.1-.1,2-.3,3-.7.3-.1.7-.3,1-.5.4-.2.9-.1,1.1.3.2.4,0,.9-.4,1.1-1.4.8-2.9,1.2-4.4,1.4-.4,0-.7,0-1.1,0-.6,0-.9-.3-.9-.9,0-1.9.5-3.8,1.5-5.5.2-.3.4-.5.8-.5.6,0,.9.7.6,1.2-.6,1-.9,2.1-1.1,3.2,0,.3,0,.5-.1.8Z"/>
        <path d="M19,6.1c1.9,0,3.3,1.5,3.3,3.3,0,1.8-1.5,3.3-3.4,3.3-1.8,0-3.3-1.5-3.3-3.3,0-1.9,1.5-3.3,3.3-3.3ZM17.2,9.4c0,1,.7,1.7,1.7,1.7,1,0,1.8-.7,1.8-1.7,0-.9-.8-1.7-1.7-1.7-1,0-1.7.8-1.8,1.7Z"/>
      </g>
    </g>
  </g>
</svg>