<?xml version="1.0" encoding="UTF-8"?>
<svg id="Layer_1" data-name="Layer 1" xmlns="http://www.w3.org/2000/svg" version="1.1" viewBox="0 0 283.46 283.46">
  <defs>
    <style>
      .cls-1 {
        fill: #ffe600;
      }

      .cls-1, .cls-2 {
        stroke-width: 0px;
      }

      .cls-2 {
        fill: #000;
      }

      .cls-3 {
        display: none;
      }
    </style>
  </defs>
  <g class="cls-3">
    <polygon class="cls-1" points="120.37 32.11 15.33 208.11 15.33 231.29 24.09 243.74 42.57 259.31 247.2 259.31 268.21 241.41 272.88 218.85 268.21 201.73 166.28 32.11 120.37 32.11"/>
    <path class="cls-2" d="M282.1,223.9c-1.67,5.74-2.56,11.87-5.14,17.16-9.31,19.09-25.02,28.72-46.22,28.81-38.98.16-77.96.05-116.94.05-20.36,0-40.71.03-61.07,0-15.97-.03-29.56-5.65-39.55-18.27-12.63-15.96-15.58-33.91-6.64-52.31,7.47-15.38,16.7-29.92,25.25-44.77,21.99-38.16,44.08-76.27,66.06-114.44,8.01-13.92,19.56-22.69,35.48-25.8,18.05-3.53,39.34,4.71,49.02,20.31,10.38,16.73,20.01,33.92,29.88,50.97,20.28,35.04,40.44,70.16,60.79,105.16,4.54,7.82,7.89,15.95,9.09,24.93v8.22ZM141.56,247.31c29.48,0,58.95.11,88.43-.11,4.45-.03,9.23-.8,13.26-2.58,15.1-6.66,20.49-24.37,12.17-38.97-9.12-16-18.39-31.91-27.59-47.86-20.46-35.45-40.95-70.89-61.37-106.36-3.48-6.04-7.99-10.81-14.6-13.39-11.57-4.51-26.38-.84-34.32,13.05-23.33,40.85-47,81.5-70.52,122.23-6.65,11.52-13.54,22.93-19.78,34.68-4.83,9.1-3.91,18.4,1.67,27.02,5.65,8.73,14.06,12.3,24.23,12.29,29.48-.01,58.95,0,88.43,0Z"/>
    <path class="cls-2" d="M156.09,110.2c-1.09,18.79-2.2,37.9-3.31,57.01-.15,2.63-.04,5.31-.47,7.89-.87,5.14-5.27,8.7-10.4,8.74-5.29.05-9.9-3.47-10.5-8.84-.83-7.42-1.08-14.9-1.55-22.36-.89-14.28-1.67-28.58-2.66-42.85-.72-10.49,6.8-18.62,16.44-17.48,6.64.79,11.89,6.21,12.43,12.91.12,1.54.02,3.1.02,4.97Z"/>
    <path class="cls-2" d="M141.56,222.45c-7.96-.2-14.21-6.79-14.01-14.77.2-7.75,6.83-14.07,14.61-13.92,7.92.15,14.04,6.78,13.78,14.93-.24,7.77-6.71,13.95-14.39,13.76Z"/>
  </g>
  <g class="cls-3">
    <path class="cls-2" d="M134,9.93c5.15,0,10.3,0,15.44,0,.66.15,1.32.38,1.99.42,20.61,1.45,39.9,7.35,57.49,18.13,34.14,20.92,55.15,51.09,62.52,90.55.92,4.94,1.38,9.97,2.05,14.95v15.44c-.16.91-.34,1.82-.47,2.73-.82,5.67-1.29,11.42-2.51,17.01-6.88,31.65-23.13,57.58-48.91,77.11-32.07,24.29-68.18,32.35-107.55,24.14-31.52-6.57-57.14-23.09-76.74-48.57-21.16-27.51-29.97-58.84-26.66-93.33,2.68-27.94,13.53-52.61,32.15-73.67C63.2,31.77,88.63,17.39,119.01,11.98c4.96-.88,9.99-1.38,14.98-2.05ZM251.88,141.71c0-60.66-49.5-110.16-110.16-110.16-60.66,0-110.16,49.5-110.16,110.16,0,60.66,49.5,110.16,110.16,110.16,60.66,0,110.16-49.5,110.16-110.16Z"/>
    <path class="cls-2" d="M120.62,170.05c.98-1.36,1.44-2.22,2.09-2.88,24.96-25,49.96-49.96,74.91-74.98,3.43-3.44,7.27-5.12,12.06-3.61,7.09,2.23,9.75,10.87,5.19,16.73-.73.94-1.59,1.79-2.44,2.64-27.58,27.59-55.17,55.18-82.76,82.77-6.38,6.38-12.02,6.38-18.41-.01-13.64-13.64-27.29-27.28-40.92-40.93-4.71-4.72-5.33-10.68-1.67-15.23,3.79-4.72,10.4-5.46,15.13-1.66.87.69,1.67,1.48,2.45,2.27,10.68,10.67,21.35,21.34,32.01,32.02.66.66,1.2,1.45,2.37,2.88Z"/>
  </g>
  <g>
    <path class="cls-2" d="M88.31,230.64c-10.61.1-21.19.22-31.59-2.69C21.22,218.02-1.73,184.2,2.3,147.56c3.8-34.46,30.91-61.91,65.21-65.92,1.9-.22,2.28-1.18,2.76-2.69,9.66-29.89,29.95-48.09,60.88-53.22,36.64-6.08,72.1,17.03,82.57,52.93.62,2.14,1.5,2.82,3.65,3.14,33.9,5.19,59.22,31.1,63.63,64.99,5.33,40.92-25.1,79.45-66.3,83.21-11.88,1.08-23.93.58-35.9.53-5.01-.02-8.84-4.59-8.69-9.56.15-4.98,4.11-8.97,9.27-9.02,9.35-.09,18.7.02,28.05-.04,26.37-.15,48.49-17.7,54.67-43.33,8.28-34.3-17.85-68.16-53.12-68.86-7.32-.15-10.61-2.96-11.91-10.16-4.77-26.5-27.9-45.89-54.82-45.97-27-.08-50.29,19.12-55.21,45.51-1.53,8.22-4.14,10.42-12.57,10.62-27.68.64-51.65,23.23-53.9,50.79-2.36,28.88,16.86,55.02,44.58,60.14,5.88,1.09,11.99,1.05,18.01,1.22,6.91.2,13.83.02,20.74.05,5.91.03,10.13,3.98,10.1,9.4-.03,5.4-4.25,9.26-10.21,9.29-5.16.03-10.32,0-15.48,0Z"/>
    <path class="cls-2" d="M151.42,131.76v3.92c0,37.21,0,74.41,0,111.62,0,1.26.06,2.55-.18,3.78-.89,4.71-5.27,7.99-9.98,7.58-4.58-.4-8.24-4.22-8.51-8.91-.06-.97-.02-1.95-.02-2.92,0-37.11,0-74.22,0-111.33v-3.65c-1.13,1.04-1.84,1.64-2.49,2.3-9.3,9.29-18.59,18.6-27.9,27.88-2.79,2.79-6.12,3.76-9.9,2.49-3.54-1.19-5.6-3.78-6.21-7.44-.49-2.97.35-5.66,2.46-7.78,15.6-15.66,31.21-31.32,46.9-46.9,3.71-3.68,9.19-3.74,12.89-.06,15.7,15.57,31.33,31.2,46.89,46.9,3.73,3.76,3.51,9.55-.13,13.14-3.65,3.58-9.34,3.65-13.14-.1-9.36-9.23-18.61-18.57-27.91-27.87-.74-.74-1.51-1.44-2.77-2.65Z"/>
  </g>
</svg>