<?xml version="1.0" encoding="UTF-8"?>
<svg id="Layer_1" data-name="Layer 1" xmlns="http://www.w3.org/2000/svg" version="1.1" viewBox="0 0 338.97 338.97">
  <defs>
    <style>
      .cls-1 {
        fill: #000;
        stroke-width: 0px;
      }

      .cls-2 {
        display: none;
      }
    </style>
  </defs>
  <g class="cls-2">
    <path class="cls-1" d="M135.28,326.67c-4.95-1.8-10.26-2.95-14.78-5.5-16.08-9.07-23.23-27.81-17.83-45.37,5.33-17.33,21.85-28.93,40-27.5,4.78.38,9.43,2.38,14.13,3.7.94.26,1.8.83,3.04,1.42v-3.67c0-16.16,0-32.32,0-48.48,0-19.43,12.35-31.73,31.87-31.71,5.81,0,11.63-.36,17.28,1.72,13.15,4.86,21.49,18.47,19.29,31.72-2.46,14.76-14.11,25.17-28.63,25.44-6.62.12-13.24.02-20.16.02v3.59c0,18,0,36,0,54.01-.01,20.82-12.86,36.29-33.29,40.13-.38.07-.72.32-1.08.49h-9.82ZM140.04,307.02c10.72.07,19.65-8.66,19.78-19.33.13-10.87-8.66-19.87-19.48-19.93-10.73-.06-19.65,8.65-19.78,19.33-.13,10.87,8.67,19.87,19.48,19.94ZM179.49,208.76c7.16,0,13.99.24,20.78-.08,4.94-.23,8.72-4.9,8.65-9.83-.07-5.05-4.12-9.39-9.25-9.62-3.66-.17-7.35-.17-11.01,0-4.99.24-8.96,4.34-9.16,9.38-.13,3.25-.02,6.51-.02,10.15Z"/>
    <path class="cls-1" d="M110.16,229.24c-11.39-.88-23-.65-34.12-2.86-23.04-4.59-40.75-17.04-49-39.89-7.07-19.59-6.79-39.48,2-58.56,9.57-20.76,27.26-31.11,48.92-35.37,3.43-.68,4.11-2.16,4.52-5.03,2.16-15.11,7.37-29.09,16.25-41.55,13.32-18.7,31.76-29.03,54.24-32.33,17.99-2.64,35.77-1.64,52.82,5.1,25.14,9.93,40.07,29.11,47.86,54.37,1.56,5.05,2.43,10.33,3.36,15.55.39,2.19,1.08,3.18,3.47,3.6,12.27,2.12,23.57,6.69,33.33,14.58,13.62,11.01,20.63,25.6,22.51,42.78,1.5,13.73.39,27.21-5.2,39.98-8.76,19.99-24.81,31.16-45.43,36.31-5.31,1.33-10.88,1.82-16.36,2.26-6,.49-10.68-3.63-10.95-9.11-.3-5.82,3.71-10.05,9.99-10.41,8.03-.46,15.81-1.95,23.15-5.35,15.15-7.03,23.15-19.17,25.21-35.51,1.03-8.2.72-16.37-1.49-24.34-4.78-17.26-17.05-26.58-33.69-30.9-4.22-1.09-8.64-1.6-13-1.96-6.3-.52-9.97-4.01-10.29-10.28-.64-12.72-3.5-24.86-9.62-36.11-10.35-19.02-26.74-28.98-47.91-31.51-13.26-1.59-26.37-.75-38.98,4-19.5,7.34-31.17,21.93-36.9,41.41-2.09,7.09-2.95,14.6-3.77,21.98-.71,6.4-3.99,10.13-10.45,10.49-8.78.48-17.15,2.57-25,6.58-11.5,5.89-18.9,15.05-21.88,27.66-2.41,10.23-2.44,20.53.33,30.66,4.82,17.57,17.1,27.36,34.29,31.36,5.43,1.26,11.12,1.75,16.71,1.89,11.35.28,22.71.07,34.06.09,6.52,0,11.01,4,11.03,9.77.03,5.78-4.46,9.85-10.93,9.87-6.34.02-12.68,0-19.03,0-.02.26-.04.52-.06.78Z"/>
    <path class="cls-1" d="M169.61,113.42c-8.17,6.52-16.22,12.94-24.27,19.37-5.99,4.78-11.96,9.59-17.97,14.35-5.1,4.04-10.96,3.57-14.64-1.09-3.51-4.45-2.62-10.3,2.34-14.28,15.86-12.73,31.74-25.44,47.64-38.11,4.69-3.73,9.04-3.77,13.67-.08,15.99,12.73,31.95,25.5,47.89,38.3,4.84,3.89,5.64,9.91,2.08,14.35-3.6,4.5-9.39,4.9-14.42.9-13.11-10.44-26.19-20.92-39.29-31.38-.94-.75-1.92-1.47-3.03-2.32Z"/>
  </g>
  <g>
    <path class="cls-1" d="M327.93,251.88c-1.17,4.89-1.92,9.93-3.59,14.63-9.37,26.38-32.26,42.93-60.14,43.31-14.04.19-26.75-4.31-38.02-12.69-1.92-1.43-3.79-2.08-6.2-2.08-54.87.06-109.73.08-164.6.03-18.65-.02-32.41-8.2-40.52-25.22-2.65-5.56-3.79-11.52-3.79-17.69,0-60.02-.08-120.05.04-180.07.05-24.48,18.49-42.75,43.4-42.82,57.96-.17,115.92-.17,173.88,0,25.24.08,43.22,18.57,43.25,43.89.05,35.17.01,70.34.01,105.51v2.78c7.81,2.87,15.46,4.86,22.35,8.36,19.19,9.76,29.84,25.93,33.28,47.02.15.9.43,1.78.65,2.67v12.38ZM131.91,190.34c1.3-1.65,1.99-2.7,2.85-3.57,21.02-21.13,42.05-42.24,63.09-63.36,5.4-5.42,9.29-5.4,14.75.05,13.42,13.41,26.84,26.84,40.26,40.25.74.74,1.53,1.43,2.6,2.42.09-1.02.16-1.42.16-1.83,0-30.53.12-61.05-.04-91.58-.09-15.69-11.54-27-27.37-27.03-57.86-.1-115.71-.1-173.57,0-16.33.03-27.49,11.5-27.5,27.83-.03,38.36-.01,76.73,0,115.09,0,.86.11,1.72.17,2.57.25.14.5.29.75.43.68-.9,1.26-1.89,2.04-2.68,14.48-14.69,28.97-29.37,43.48-44.03,4.94-5,9.11-5.01,14.05-.04,13.97,14.03,27.93,28.08,41.86,42.15.79.8,1.35,1.83,2.42,3.32ZM204.26,139.66c-.33.39-1.08,1.38-1.95,2.26-21.02,21.12-42.05,42.23-63.08,63.34-4.96,4.97-9.46,5-14.38.08-13.93-13.92-27.86-27.84-41.74-41.81-.77-.77-1.1-1.98-1.64-2.99-1.34,1.17-1.67,1.4-1.96,1.69-17.01,17.11-34.04,34.2-50.97,51.39-.86.88-1.33,2.51-1.34,3.8-.1,10.93-.05,21.86-.06,32.79-.03,19.68,12.68,29.2,29.45,29.34,49.59.4,99.19.14,148.78.14.87,0,1.73-.1,2.83-.16-10.01-19.07-12.35-38.46-3.87-58.28,8.49-19.84,23.89-31.95,44.78-37.66-15.03-14.72-29.74-29.12-44.83-43.91ZM263.58,198.29c-26.37-.16-47.5,21.13-47.8,47.72-.31,27.08,23.17,47.42,47.39,47.5,26.45.09,47.85-20.71,48.08-47.07.23-26.64-20.9-47.99-47.66-48.15Z"/>
    <path class="cls-1" d="M130.5,141.97c-12.04,0-21.78-9.81-21.69-21.84.09-11.88,9.86-21.62,21.68-21.63,11.92,0,21.8,9.97,21.71,21.93-.09,11.9-9.8,21.54-21.7,21.54Z"/>
    <path class="cls-1" d="M254.57,239.1c-1.19,1.36-2.3,2.8-3.6,4.05-3.43,3.29-8.75,3.53-11.75.62-3.26-3.16-3.12-8.61.42-12.2,5.79-5.87,11.64-11.7,17.5-17.5,3.95-3.91,8.29-4.21,12.3-.4,6.34,6.04,12.53,12.26,18.58,18.6,3.15,3.3,2.85,8.7-.19,11.48-3.11,2.84-8.25,2.71-11.52-.38-1.39-1.31-2.63-2.78-3.93-4.18-.24.14-.48.28-.72.41,0,2.53,0,5.07,0,7.6,0,8.15.04,16.29-.02,24.44-.03,4.8-3.52,8.48-7.94,8.59-4.54.11-8.22-3.6-8.26-8.56-.07-9.69-.02-19.38-.03-29.08,0-.98,0-1.97,0-2.95-.28-.18-.56-.36-.85-.55Z"/>
  </g>
</svg>