<?xml version="1.0" encoding="utf-8"?>
<!-- Generator: Adobe Illustrator 22.0.0, SVG Export Plug-In . SVG Version: 6.00 Build 0)  -->
<svg version="1.1" id="Layer_1" xmlns="http://www.w3.org/2000/svg" xmlns:xlink="http://www.w3.org/1999/xlink" x="0px" y="0px"
	 viewBox="0 0 460.6 136.2" style="enable-background:new 0 0 460.6 136.2;" xml:space="preserve">
<style type="text/css">
	.st0{display:none;}
	.st1{fill:#F7F8F8;}
</style>
<g>
	<g class="st0">
		<rect id="SVGID_1_" y="0" class="st1" width="460.6" height="136.2"/>
	</g>
	<g>
		<path d="M0,123.3c22.2,0,42.1,5.2,60.7,12.9h5.8c-20.3-9-42-15.2-66.5-15.2V123.3z"/>
		<path d="M0,108.2c34.7,0,63.8,12.7,91.3,28H96C67.2,119.9,36.7,106,0,106V108.2z"/>
		<path d="M0.2,90.8c-0.1,0-0.1,0-0.2,0v2.3c44.6,0,80.1,21,114.5,41.5c0.9,0.6,1.9,1.1,2.8,1.7h4.6c-2-1.2-4.1-2.4-6.1-3.6
			C81.2,112,45.4,90.8,0.2,90.8z"/>
		<path d="M0.2,75.8c-0.1,0-0.1,0-0.2,0V78c44.6,0,80.1,21,114.5,41.5c9.6,5.7,19.2,11.4,29.1,16.7h5c-11.2-5.8-22-12.3-32.7-18.6
			C81.2,97,45.4,75.8,0.2,75.8z"/>
		<path d="M0.2,60.6c-0.1,0-0.1,0-0.2,0v2.3c44.6,0,80.1,21,114.5,41.5c19.9,11.8,40.1,23.8,62.3,31.9h7.1c-24.4-8-46.4-21-68-33.8
			C81.2,81.8,45.4,60.6,0.2,60.6z"/>
		<path d="M230.3,70.5c45.2,0,81-21.2,115.7-41.8C363.5,18.4,381.2,7.8,400.2,0h-5.8c-17.3,7.6-33.6,17.3-49.6,26.8
			c-34.4,20.4-69.9,41.5-114.5,41.5s-80.1-21-114.5-41.5C99.7,17.3,83.5,7.6,66.2,0h-5.8c19,7.9,36.7,18.4,54.2,28.7
			C149.3,49.3,185,70.5,230.3,70.5z"/>
		<path d="M230.3,55.3c45.2,0,81-21.2,115.7-41.8C353.7,9,361.5,4.4,369.3,0h-4.8c-6.7,3.8-13.3,7.7-19.8,11.6
			C310.3,32,274.9,53,230.3,53.1c-44.6,0-80-21.1-114.4-41.5C109.3,7.7,102.8,3.8,96.1,0h-4.8c7.9,4.4,15.6,9,23.3,13.5
			C149.3,34.1,185,55.3,230.3,55.3z"/>
		<path d="M399.8,136.2c18.6-7.7,38.6-12.9,60.7-12.9V121c-24.5,0-46.2,6.2-66.5,15.2H399.8z"/>
		<path d="M369.3,136.2c27.4-15.3,56.6-28,91.3-28V106c-36.7,0-67.2,14-95.9,30.2H369.3z"/>
		<path d="M344.7,132.6c-2,1.2-4.1,2.4-6.1,3.6h4.6c0.9-0.6,1.9-1.1,2.8-1.7C380.4,114.1,415.9,93,460.5,93v-2.3c-0.1,0-0.1,0-0.2,0
			C415.2,90.8,379.4,112,344.7,132.6z"/>
		<path d="M344.7,117.6c-10.7,6.4-21.6,12.8-32.7,18.6h5c9.9-5.3,19.5-11,29.1-16.7C380.5,99.1,415.9,78,460.6,78v-2.3
			c-0.1,0-0.1,0-0.2,0C415.2,75.8,379.4,97,344.7,117.6z"/>
		<path d="M344.7,102.4c-21.6,12.8-43.6,25.9-68,33.8h7.1c22.2-8.1,42.4-20.1,62.3-31.9c34.4-20.4,69.9-41.5,114.5-41.5v-2.3
			c-0.1,0-0.1,0-0.2,0C415.2,60.6,379.4,81.8,344.7,102.4z"/>
		<path d="M230.3,128.7c-44.6,0-80.1-21-114.5-41.5C81,66.6,45.2,45.4,0,45.4v2.3c44.6,0,80.1,21,114.5,41.5
			C149.2,109.8,185,131,230.2,131s81-21.2,115.7-41.8c34.4-20.4,69.9-41.5,114.5-41.5v-2.3c-45.2,0-81,21.2-115.8,41.8
			C310.4,107.6,274.9,128.7,230.3,128.7z"/>
		<path d="M230.3,113.6c-44.6,0-80.1-21-114.5-41.5C81,51.6,45.2,30.4,0,30.4v2.3c44.6,0,80.1,21,114.5,41.5
			C149.2,94.8,185,116,230.2,116s81-21.2,115.7-41.8c34.4-20.4,69.9-41.5,114.5-41.5v-2.3c-45.2,0-81,21.2-115.8,41.8
			C310.4,92.6,274.9,113.6,230.3,113.6z"/>
		<path d="M344.7,57c-34.4,20.4-69.8,41.4-114.4,41.5c-44.6,0-80-21.1-114.4-41.5C81.2,36.4,45.4,15.2,0.2,15.2c-0.1,0-0.1,0-0.2,0
			v2.3c44.6,0,80.1,21,114.5,41.5c34.7,20.6,70.5,41.8,115.7,41.8s81-21.2,115.7-41.8c34.4-20.4,69.9-41.5,114.5-41.5v-2.3
			c-0.1,0-0.1,0-0.2,0C415.2,15.2,379.4,36.4,344.7,57z"/>
		<path d="M344.8,41.8c-34.4,20.4-69.9,41.5-114.5,41.5s-80.1-21-114.5-41.5C81,21.2,45.2,0,0,0v2.3c44.6,0,80.1,21,114.5,41.5
			c34.7,20.6,70.5,41.8,115.7,41.8s81-21.2,115.7-41.8c34.4-20.4,69.9-41.5,114.5-41.5V0C415.3,0,379.6,21.2,344.8,41.8z"/>
		<path d="M343.5,0h-4.6c-32.6,19.3-66.5,38-108.6,38s-76-18.8-108.6-38h-4.6c33.9,20.1,69.1,40.3,113.2,40.3S309.6,20.1,343.5,0z"
			/>
		<path d="M316.9,0h-4.7c-24.7,12.9-51.1,23-81.9,23s-57.2-10.1-81.9-23h-4.7c26,14,53.9,25.1,86.7,25.1
			C263.1,25.1,290.9,14,316.9,0z"/>
		<path d="M283.8,0h-7.1c-14.5,4.7-29.8,7.6-46.4,7.7c-16.6,0-31.9-2.9-46.4-7.7h-7.1c16.5,6,34.1,9.9,53.5,9.9
			C249.6,9.9,267.2,6,283.8,0z"/>
	</g>
</g>
</svg>
