<?xml version="1.0" encoding="UTF-8"?>
<svg id="Layer_1" data-name="Layer 1" xmlns="http://www.w3.org/2000/svg" version="1.1" viewBox="0 0 283.46 283.46">
  <defs>
    <style>
      .cls-1 {
        fill: #000;
        stroke-width: 0px;
      }

      .cls-2 {
        display: none;
      }
    </style>
  </defs>
  <g>
    <path class="cls-1" d="M282.1,223.9c-1.67,5.74-2.56,11.87-5.14,17.16-9.31,19.09-25.02,28.72-46.22,28.81-38.98.16-77.96.05-116.94.05-20.36,0-40.71.03-61.07,0-15.97-.03-29.56-5.65-39.55-18.27-12.63-15.96-15.58-33.91-6.64-52.31,7.47-15.38,16.7-29.92,25.25-44.77,21.99-38.16,44.08-76.27,66.06-114.44,8.01-13.92,19.56-22.69,35.48-25.8,18.05-3.53,39.34,4.71,49.02,20.31,10.38,16.73,20.01,33.92,29.88,50.97,20.28,35.04,40.44,70.16,60.79,105.16,4.54,7.82,7.89,15.95,9.09,24.93v8.22ZM141.56,247.31c29.48,0,58.95.11,88.43-.11,4.45-.03,9.23-.8,13.26-2.58,15.1-6.66,20.49-24.37,12.17-38.97-9.12-16-18.39-31.91-27.59-47.86-20.46-35.45-40.95-70.89-61.37-106.36-3.48-6.04-7.99-10.81-14.6-13.39-11.57-4.51-26.38-.84-34.32,13.05-23.33,40.85-47,81.5-70.52,122.23-6.65,11.52-13.54,22.93-19.78,34.68-4.83,9.1-3.91,18.4,1.67,27.02,5.65,8.73,14.06,12.3,24.23,12.29,29.48-.01,58.95,0,88.43,0Z"/>
    <path class="cls-1" d="M156.09,110.2c-1.09,18.79-2.2,37.9-3.31,57.01-.15,2.63-.04,5.31-.47,7.89-.87,5.14-5.27,8.7-10.4,8.74-5.29.05-9.9-3.47-10.5-8.84-.83-7.42-1.08-14.9-1.55-22.36-.89-14.28-1.67-28.58-2.66-42.85-.72-10.49,6.8-18.62,16.44-17.48,6.64.79,11.89,6.21,12.43,12.91.12,1.54.02,3.1.02,4.97Z"/>
    <path class="cls-1" d="M141.56,222.45c-7.96-.2-14.21-6.79-14.01-14.77.2-7.75,6.83-14.07,14.61-13.92,7.92.15,14.04,6.78,13.78,14.93-.24,7.77-6.71,13.95-14.39,13.76Z"/>
  </g>
  <g class="cls-2">
    <path class="cls-1" d="M134,9.93c5.15,0,10.3,0,15.44,0,.66.15,1.32.38,1.99.42,20.61,1.45,39.9,7.35,57.49,18.13,34.14,20.92,55.15,51.09,62.52,90.55.92,4.94,1.38,9.97,2.05,14.95v15.44c-.16.91-.34,1.82-.47,2.73-.82,5.67-1.29,11.42-2.51,17.01-6.88,31.65-23.13,57.58-48.91,77.11-32.07,24.29-68.18,32.35-107.55,24.14-31.52-6.57-57.14-23.09-76.74-48.57-21.16-27.51-29.97-58.84-26.66-93.33,2.68-27.94,13.53-52.61,32.15-73.67C63.2,31.77,88.63,17.39,119.01,11.98c4.96-.88,9.99-1.38,14.98-2.05ZM251.88,141.71c0-60.66-49.5-110.16-110.16-110.16-60.66,0-110.16,49.5-110.16,110.16,0,60.66,49.5,110.16,110.16,110.16,60.66,0,110.16-49.5,110.16-110.16Z"/>
    <path class="cls-1" d="M120.62,170.05c.98-1.36,1.44-2.22,2.09-2.88,24.96-25,49.96-49.96,74.91-74.98,3.43-3.44,7.27-5.12,12.06-3.61,7.09,2.23,9.75,10.87,5.19,16.73-.73.94-1.59,1.79-2.44,2.64-27.58,27.59-55.17,55.18-82.76,82.77-6.38,6.38-12.02,6.38-18.41-.01-13.64-13.64-27.29-27.28-40.92-40.93-4.71-4.72-5.33-10.68-1.67-15.23,3.79-4.72,10.4-5.46,15.13-1.66.87.69,1.67,1.48,2.45,2.27,10.68,10.67,21.35,21.34,32.01,32.02.66.66,1.2,1.45,2.37,2.88Z"/>
  </g>
</svg>