<?xml version="1.0" encoding="UTF-8"?>
<svg id="Layer_1" xmlns="http://www.w3.org/2000/svg" version="1.1" viewBox="0 0 56.69 56.69">
  <!-- Generator: Adobe Illustrator 29.0.1, SVG Export Plug-In . SVG Version: 2.1.0 Build 192)  -->
  <polygon points="55.21 11.76 55.21 13.55 52.27 13.55 52.27 43.15 55.21 43.15 55.21 44.93 47.65 44.93 47.65 43.15 50.59 43.15 50.59 13.55 47.65 13.55 47.65 11.76 55.21 11.76"/>
  <path d="M19.61,35.71h-11.14c-.12.03-.14.13-.2.22-.88,1.47-1.29,4.47-2.88,5.31-1.4.74-3.23.19-3.76-1.35-.34-1.01-.04-1.59.32-2.51,2.63-6.77,6.23-13.44,8.99-20.19,1.32-2.2,4.87-2.27,6.22-.06l9.17,20.54c1.08,2.18-.91,4.51-3.25,3.78-1.97-.62-2.52-4.11-3.46-5.73ZM17.43,30.66l-3.41-8.29-3.52,8.29h6.93Z"/>
  <path d="M41.88,39.26c-3.45,3.94-12.01,3.21-12.58-2.79-.69-7.19,7.47-7.93,12.58-6.23.06-1.65-.62-3.04-2.25-3.57-.94-.31-2.48-.3-3.47-.2-1.4.14-3.11,1.09-4.35.25-1.38-.93-1.31-2.9.06-3.81,1.67-1.11,6.39-1.4,8.37-1.16,5.05.62,6.78,3.64,7,8.43.11,2.5.16,5.82,0,8.3-.05.77-.12,1.41-.59,2.03-1.39,1.85-4.7,1.18-4.77-1.25ZM41.97,33.5c-1.95-.96-7.01-1.36-7.33,1.61s3.52,3.24,5.55,2.19c1.46-.75,1.9-2.24,1.78-3.8Z"/>
</svg>