<?xml version="1.0" encoding="UTF-8"?>
<svg id="Layer_1" xmlns="http://www.w3.org/2000/svg" version="1.1" viewBox="0 0 56.69 56.69">
  <!-- Generator: Adobe Illustrator 29.0.1, SVG Export Plug-In . SVG Version: 2.1.0 Build 192)  -->
  <defs>
    <style>
      .st0 {
        stroke: #231f20;
        stroke-miterlimit: 10;
      }
    </style>
  </defs>
  <path class="st0" d="M43.03,2.65c8.96.78,13.98,11.14,9.19,18.78-5.54,8.84-19.01,7.12-22.14-2.78-2.3-7.29,2.78-15.27,10.43-16,.65-.06,1.86-.06,2.51,0ZM41.1,5.69c-6.69.51-10.65,7.83-7.37,13.74s12.33,6.32,15.98.29c3.9-6.44-1.14-14.6-8.61-14.03Z"/>
  <path class="st0" d="M2.6,42.94l6.44-11,12.53-.06.33.17,6.31,10.94-6.47,11.08h-12.79s-6.35-10.93-6.35-10.93v-.2ZM20.08,51.06l4.61-8.07-4.5-7.83-.33-.17-9.19.02-4.54,7.97,4.62,8.04,9.33.03Z"/>
  <path class="st0" d="M15.88,2.65l13.07,23.21H2.6s0-.1,0-.1L15.78,2.65h.1ZM23.82,22.84l-7.95-14.07-8.04,14.07h15.99Z"/>
  <path class="st0" d="M54.09,31.38v22.71h-22.73v-22.71h22.73ZM51.07,34.4h-16.69v16.68h16.69v-16.68Z"/>
</svg>