<?xml version="1.0" encoding="UTF-8"?>
<svg id="Layer_1" xmlns="http://www.w3.org/2000/svg" version="1.1" viewBox="0 0 56.69 56.69">
  <!-- Generator: Adobe Illustrator 29.0.1, SVG Export Plug-In . SVG Version: 2.1.0 Build 192)  -->
  <defs>
    <style>
      .st0 {
        stroke: #231f20;
        stroke-miterlimit: 10;
      }
    </style>
  </defs>
  <path class="st0" d="M34.65,3.91c1.66.16,3.72,2.07,3.72,3.77v1.96h7.68c.58,0,1.73.58,2.19.96,2.13,1.71,2.09,5.04-.05,6.72-.42.33-.89.48-1.31.79l-2.5,30.34c-.11,2.23-1.72,4.1-3.96,4.34h-23.96c-1.93-.08-3.61-1.57-4.01-3.43l-2.62-31.17-.09-.2c-3.13-1.09-3.9-5.29-1.29-7.39.46-.37,1.61-.96,2.19-.96h7.68v-1.96c0-1.74,2.07-3.57,3.72-3.77h12.6ZM21.19,7.96c-.08.49.06,1.16,0,1.67h14.32v-1.67c0-.11-.34-.71-.45-.81-.3-.27-.72-.35-1.12-.38-3.66-.28-7.67.22-11.36,0-.63.04-1.28.57-1.38,1.19ZM46.55,12.91c-.23-.23-.73-.41-1.06-.42H11.21c-1.99.18-1.92,2.73,0,2.87l34.76-.09c.99-.29,1.32-1.62.58-2.36ZM44,18.23H12.69l2.48,29.83c.14,1.11.31,1.76,1.57,1.87h23.11c1.33-.1,1.52-.67,1.67-1.87l2.48-29.83Z"/>
  <path class="st0" d="M19.44,21.11c2.06-.37,1.75,2.03,1.84,3.27.5,6.75,1.14,13.87,1.34,20.61.03.94-.13,1.97-1.3,2.06-1.91.14-1.58-2.08-1.67-3.29-.51-6.84-.83-13.69-1.34-20.52-.11-.88.11-1.95,1.12-2.13Z"/>
  <path class="st0" d="M36.63,21.11c1.34-.24,1.93.96,1.75,2.13l-1.44,22.61c-.66,2.16-3.32,1.2-2.86-.95.51-6.84.83-13.68,1.34-20.52.08-1.07-.23-3.01,1.22-3.27Z"/>
  <path class="st0" d="M28.04,21.11c.91-.16,1.7.43,1.75,1.36v23.3c-.18,1.51-2.19,1.77-2.78.39-.15-8.03-.15-16.14,0-24.16.14-.41.6-.8,1.03-.88Z"/>
</svg>