<?xml version="1.0" encoding="UTF-8"?>
<svg id="Layer_1" xmlns="http://www.w3.org/2000/svg" version="1.1" viewBox="0 0 56.7 56.7">
  <!-- Generator: Adobe Illustrator 29.0.1, SVG Export Plug-In . SVG Version: 2.1.0 Build 192)  -->
  <defs>
    <style>
      .st0 {
        stroke: #231f20;
        stroke-miterlimit: 10;
      }
    </style>
  </defs>
  <path class="st0" d="M34.7,3.9c1.7.2,3.7,2.1,3.7,3.8v2h7.7c.6,0,1.7.6,2.2,1,2.1,1.7,2.1,5,0,6.7-.4.3-.9.5-1.3.8l-2.5,30.3c-.1,2.2-1.7,4.1-4,4.3h-24c-1.9,0-3.6-1.6-4-3.4l-2.6-31.2v-.2c-3.2-1.1-4-5.3-1.4-7.4.5-.4,1.6-1,2.2-1h7.7v-2c0-1.7,2.1-3.6,3.7-3.8h12.6ZM21.2,8c0,.5,0,1.2,0,1.7h14.3v-1.7c0-.1-.3-.7-.5-.8-.3-.3-.7-.3-1.1-.4-3.7-.3-7.7.2-11.4,0-.6,0-1.3.6-1.4,1.2h0ZM46.5,12.9c-.2-.2-.7-.4-1.1-.4H11.2c-2,.2-1.9,2.7,0,2.9h34.8c1-.4,1.3-1.7.6-2.4ZM44,18.2H12.7l2.5,29.8c.1,1.1.3,1.8,1.6,1.9h23.1c1.3,0,1.5-.7,1.7-1.9,0,0,2.5-29.8,2.5-29.8Z"/>
  <path class="st0" d="M19.4,21.1c2.1-.4,1.8,2,1.8,3.3.5,6.8,1.1,13.9,1.3,20.6,0,.9-.1,2-1.3,2.1-1.9.1-1.6-2.1-1.7-3.3-.5-6.8-.8-13.7-1.3-20.5-.1-.9.1-2,1.1-2.1h0Z"/>
  <path class="st0" d="M36.6,21.1c1.3-.2,1.9,1,1.8,2.1l-1.4,22.6c-.7,2.2-3.3,1.2-2.9-1,.5-6.8.8-13.7,1.3-20.5,0-1.1-.2-3,1.2-3.3h0Z"/>
  <path class="st0" d="M28,21.1c.9-.2,1.7.4,1.8,1.4v23.3c-.2,1.5-2.2,1.8-2.8.4-.1-8-.1-16.1,0-24.2.1-.4.6-.8,1-.9h0Z"/>
</svg>