<?xml version="1.0" encoding="utf-8"?>
<!-- Generator: Adobe Illustrator 28.2.0, SVG Export Plug-In . SVG Version: 6.00 Build 0)  -->
<svg version="1.1" id="Layer_1" xmlns="http://www.w3.org/2000/svg" xmlns:xlink="http://www.w3.org/1999/xlink" x="0px" y="0px"
	 viewBox="0 0 56.7 56.7" style="enable-background:new 0 0 56.7 56.7;" xml:space="preserve">
<g>
	<path d="M50.2,12.8H6.5c-1.7,0-3.1-1.4-3.1-3.1v0c0-1.7,1.4-3.1,3.1-3.1h43.7c1.7,0,3.1,1.4,3.1,3.1v0
		C53.3,11.4,51.9,12.8,50.2,12.8z"/>
	<path d="M50.2,37.7H6.5c-1.7,0-3.1-1.4-3.1-3.1v0c0-1.7,1.4-3.1,3.1-3.1h43.7c1.7,0,3.1,1.4,3.1,3.1v0
		C53.3,36.3,51.9,37.7,50.2,37.7z"/>
	<path d="M44,25.2H12.7c-1.7,0-3.1-1.4-3.1-3.1v0c0-1.7,1.4-3.1,3.1-3.1H44c1.7,0,3.1,1.4,3.1,3.1v0C47.1,23.8,45.7,25.2,44,25.2z"
		/>
	<path d="M44,50.2H12.7c-1.7,0-3.1-1.4-3.1-3.1v0c0-1.7,1.4-3.1,3.1-3.1H44c1.7,0,3.1,1.4,3.1,3.1v0C47.1,48.8,45.7,50.2,44,50.2z"
		/>
</g>
</svg>
