<?xml version="1.0" encoding="UTF-8"?>
<svg id="Layer_1" xmlns="http://www.w3.org/2000/svg" version="1.1" viewBox="0 0 56.69 56.69">
  <!-- Generator: Adobe Illustrator 29.0.1, SVG Export Plug-In . SVG Version: 2.1.0 Build 192)  -->
  <path d="M20.05,1.32c.61-.13,1.34-.06,1.81.38l23.03,23.03c1.37,1.63,1.38,3.96.06,5.61l-15.11,15.12c-10.27,7.85-17.24-6.48-24.15-11.87-2.85-3.47-2.85-8.57,0-12.04l15.17-15.18c.09-.13.06-.22,0-.35-.17-.36-1.38-1.26-1.72-1.72-.73-.99-.36-2.72.91-2.98ZM40.39,25.62L23.58,8.98l-14.6,14.57c-.55.63-1,1.28-1.3,2.07h32.71ZM40.39,29.52H7.68l.61,1.22c3.77,3.63,7.47,8.22,11.43,11.6,2.12,1.81,4.71,2.13,7.12.63l13.54-13.44Z"/>
  <path d="M45.32,34.62c1.36-.2,2.51,1.51,3.26,2.47,3.16,4.04,6.74,10.83,2.9,15.51-3.09,3.77-8.7,3.77-11.8,0-4.01-4.88.09-12.25,3.54-16.29.55-.64,1.2-1.56,2.09-1.69ZM45.7,39.44l-.24.07c-1.89,2.52-5.3,7.93-2.7,10.85,1.74,1.96,5.01,1.59,6.18-.78,1.54-3.11-1.49-7.63-3.24-10.14Z"/>
</svg>