<?xml version="1.0" encoding="UTF-8"?>
<svg id="Layer_1" xmlns="http://www.w3.org/2000/svg" version="1.1" viewBox="0 0 56.7 56.7">
  <!-- Generator: Adobe Illustrator 29.0.1, SVG Export Plug-In . SVG Version: 2.1.0 Build 192)  -->
  <g>
    <path d="M23.4,11.2c-11.7,0-21.3,9.5-21.3,21.3s9.5,21.3,21.3,21.3,21.3-9.5,21.3-21.3-9.5-21.3-21.3-21.3ZM23.4,49c-9.1,0-16.5-7.4-16.5-16.5S14.3,16,23.4,16s16.5,7.4,16.5,16.5-7.4,16.5-16.5,16.5Z"/>
    <path d="M23.4,30.2c-1.3,0-2.3,1-2.3,2.3s1,2.3,2.3,2.3,2.3-1,2.3-2.3-1-2.3-2.3-2.3Z"/>
  </g>
  <path d="M38.1,44.9c9.4-2.2,16.5-10.6,16.5-20.7S45,2.9,33.3,2.9s-16.4,5.4-19.6,13l5.9-1c3-4.4,8-7.3,13.7-7.3,9.1,0,16.5,7.4,16.5,16.5s-4.3,12.9-10.4,15.3l-1.3,5.4Z"/>
</svg>