<?xml version="1.0" encoding="UTF-8"?>
<svg id="Layer_1" xmlns="http://www.w3.org/2000/svg" version="1.1" viewBox="0 0 56.7 56.7">
  <!-- Generator: Adobe Illustrator 29.0.1, SVG Export Plug-In . SVG Version: 2.1.0 Build 192)  -->
  <g>
    <path d="M24.2,14c-9.8,0-17.9,8-17.9,17.9s8,17.9,17.9,17.9,17.9-8,17.9-17.9-8-17.9-17.9-17.9ZM24.2,45.7c-7.6,0-13.9-6.2-13.9-13.9s6.2-13.9,13.9-13.9,13.9,6.2,13.9,13.9-6.2,13.9-13.9,13.9Z"/>
    <path d="M24.2,29.9c-1.1,0-1.9.9-1.9,1.9s.9,1.9,1.9,1.9,1.9-.9,1.9-1.9-.9-1.9-1.9-1.9Z"/>
  </g>
  <path d="M36.5,42.3c7.9-1.8,13.8-8.9,13.8-17.4S42.4,7,32.5,7s-13.7,4.5-16.5,10.9l5-.8c2.5-3.7,6.7-6.1,11.5-6.1,7.6,0,13.9,6.2,13.9,13.9s-3.6,10.8-8.7,12.9l-1.1,4.5Z"/>
</svg>