<?xml version="1.0" encoding="UTF-8"?>
<svg id="Layer_1" xmlns="http://www.w3.org/2000/svg" version="1.1" viewBox="0 0 56.7 56.7">
  <!-- Generator: Adobe Illustrator 29.0.1, SVG Export Plug-In . SVG Version: 2.1.0 Build 192)  -->
  <path d="M42,20.3v27.9c-.2,3.1-2.6,5.4-5.7,5.7H8.5c-3.1-.2-5.4-2.6-5.7-5.7v-27.8c.2-3,2.6-5.4,5.6-5.7h28.2c2.9.3,5.1,2.7,5.4,5.6h0ZM8.7,18.8c-.8,0-1.5.5-1.7,1.2-.3,9.3,0,18.6-.1,28,0,.8.5,1.5,1.2,1.7,9.3.3,18.6,0,28,.1.8,0,1.5-.5,1.7-1.2.3-9.3,0-18.6.1-28,0-1-.6-1.6-1.6-1.8H8.7s0,0,0,0Z"/>
  <path d="M14.8,10.7h3.9v-2.1s.2-.6.2-.7c.4-.8,1.1-1.1,1.9-1.2h26.8c1.4.1,2.1.8,2.2,2.2v26.8c0,.8-.4,1.6-1.2,1.9,0,0-.7.2-.7.2h-2.2v3.9h3c2.1,0,4.9-3,5-5.2V8.1c-.3-2.7-2.5-4.9-5.2-5.3h-28.7c-2.1,0-5.2,2.9-5.2,4.9,0,0,0,2.9,0,2.9Z"/>
  <g>
    <rect x="20.5" y="25.9" width="4.1" height="17.3" rx="2.1" ry="2.1"/>
    <rect x="20.5" y="25.9" width="4.1" height="17.3" rx="2.1" ry="2.1" transform="translate(57.2 12) rotate(90)"/>
  </g>
</svg>