<?xml version="1.0" encoding="UTF-8"?>
<svg id="Layer_1" xmlns="http://www.w3.org/2000/svg" version="1.1" viewBox="0 0 56.69 56.69">
  <!-- Generator: Adobe Illustrator 29.0.1, SVG Export Plug-In . SVG Version: 2.1.0 Build 192)  -->
  <path d="M41.97,20.31v27.89c-.22,3.09-2.62,5.44-5.69,5.69H8.49c-3.09-.23-5.45-2.62-5.69-5.69v-27.79c.22-3.03,2.57-5.41,5.59-5.69l28.17.03c2.9.32,5.14,2.66,5.4,5.56ZM8.7,18.76c-.78.06-1.48.49-1.73,1.25-.31,9.29-.04,18.65-.14,27.97.06.78.49,1.48,1.25,1.73,9.29.31,18.65.04,27.97.14.78-.06,1.48-.49,1.73-1.25.31-9.29.04-18.65.14-27.97-.09-.96-.63-1.61-1.57-1.83l-27.65-.03Z"/>
  <path d="M14.83,10.68h3.94s0-2.08,0-2.08c0-.04.2-.63.24-.72.36-.78,1.12-1.08,1.94-1.15h26.83c1.38.12,2.06.8,2.18,2.18v26.83c-.07.82-.37,1.58-1.15,1.94-.09.04-.68.24-.72.24h-2.18s0,3.94,0,3.94h3.03c2.08,0,4.92-3.05,4.95-5.16V8.06c-.32-2.71-2.47-4.88-5.16-5.26h-28.74c-2.11.02-5.16,2.88-5.16,4.95v2.93Z"/>
</svg>