<?xml version="1.0" encoding="UTF-8"?>
<svg id="Layer_1" xmlns="http://www.w3.org/2000/svg" version="1.1" viewBox="0 0 56.7 56.7">
  <!-- Generator: Adobe Illustrator 29.0.1, SVG Export Plug-In . SVG Version: 2.1.0 Build 192)  -->
  <defs>
    <style>
      .st0 {
        stroke: #000;
        stroke-miterlimit: 10;
      }

      .st1 {
        display: none;
      }
    </style>
  </defs>
  <g class="st1">
    <path d="M55.2,51.6v.9c-.3.7-.8,1.5-1.6,1.7s-4.1.2-4.9,0c-2.3-.3-2.7-3.6-.5-4.4s3.8-.3,4.7-.2,2,.7,2.4,1.9Z"/>
    <path d="M28.3,49.7h12.5c.4,0,1.3.6,1.5.9,1,1.4.3,3.3-1.3,3.7h-20.7c-1.3-.1-2.5-.7-3.5-1.5l-13.9-13.9c-2-2.4-2-5.8,0-8.2L29.9,3.8c2.2-1.9,5.4-2.1,7.8-.3,4.4,4.6,9.8,9,14,13.8s2.5,6.1,0,9l-23.4,23.4ZM33.7,6.9c-.3,0-.6.3-.9.5l-11.4,11.5,15.6,15.5,11.6-11.5c.5-.6.5-1.5,0-2.1l-13.5-13.5c-.4-.4-.9-.4-1.4-.3ZM18,22.2l-11.4,11.3c-.8,1-.7,1.6,0,2.6l13.1,13.1c.6.5,1.2.6,1.9.3l12-11.9-15.7-15.5Z"/>
    <path d="M42.7,41.9c1-.1,4.2-.2,5,.3,1.7.9,1.6,3.6-.3,4.2s-4.4.3-5.3,0c-2.4-.7-2.2-4.2.6-4.5Z"/>
  </g>
  <g>
    <path class="st0" d="M2.9,32.4c0-.4,0-1.3,0-1.7.3-2.4,2.5-5.2,4.4-6.6s3.1.4,2.3,1.9-.4.5-.6.8c-.5,1.5,1.1,2.6,2.4,1.6s3.2-3.5,4.8-4.8c2.7-2.2,6.8-2.2,9.4,0s1.3,1.4,1.5,1.3l14.4-17.5c6.7-7.3,16.6,2.3,10,9.3l-17.9,14.8c0,.1,0,.2,0,.3.3.4.9.8,1.3,1.2,2.6,3.1,2.2,7.1-.4,10.1-1.7,1.9-4.3,4.5-6.3,6.3-3.1,2.8-7.1,3.2-10.3.4-4.6-3.9-8.7-9.3-13.3-13.3-.9-1.1-1.7-2.7-1.8-4.1ZM49.7,9.1c-1.4-1.4-3.6-1.4-5.1-.3l-15.3,18.4c0,0,0,.1,0,.2,0,.1,2,2.1,2.1,2.1h.2c.5-.4,1-.8,1.5-1.3,5.1-4.2,10.5-8.4,15.4-12.7s1.4-1.2,1.8-1.9c.8-1.5.5-3.3-.7-4.5ZM33.4,39.8c.8-1.8.4-3.5-.8-4.9-3-2.5-5.8-6.5-8.9-8.9s-3.1-1.2-4.7-.6l14.4,14.4ZM19.9,47.4c1.5,1.8,4.4,1.8,6.1.2l5.5-5.5-14.8-14.8c-2.4,2.1-4.3,5.6-8.1,4.1s-1.6-1.1-2.2-1.9c-1.1,2-.4,3.8.9,5.4s3.9,4,6.8,2.9,1.8-1.9,3.1-1.3,1.1,1.2.7,1.9c-.5,1.3-3.2,2.4-4.5,2.6,1.9,2.1,4.1,4.4,7.2,3s1.9-1.9,3.1-1,.7,1,.6,1.6c-.2,1.2-3.4,2.8-4.6,2.7Z"/>
    <path class="st0" d="M15.7,10c6.5-.9,6.9,9,.7,8.9s-5.9-8.2-.7-8.9ZM16,12.9c-1.6.3-1.3,2.9.4,3s2-3.5-.4-3Z"/>
    <path class="st0" d="M41.8,45.8c1.1,0,2.9-.2,3,1.3s-1.8,1.8-3,1.6c.2,1.2,0,3.3-1.8,2.9s-1.2-1.9-1.2-2.9c-1.3.2-3.3,0-2.9-1.9s1.9-1.1,2.9-1.1c0-1.1-.2-2.8,1.3-3s1.8,1.7,1.7,3Z"/>
    <path class="st0" d="M47.1,30.9c3.9-.7,5,4.9,1.4,5.8s-5.2-5.2-1.4-5.8Z"/>
    <path class="st0" d="M46.4,10.8c2.1-.1,2.2,3.3-.2,3s-1.5-2.9.2-3Z"/>
  </g>
</svg>