<?xml version="1.0" encoding="UTF-8"?>
<svg id="Layer_1" xmlns="http://www.w3.org/2000/svg" version="1.1" viewBox="0 0 56.69 56.69">
  <!-- Generator: Adobe Illustrator 29.0.1, SVG Export Plug-In . SVG Version: 2.1.0 Build 192)  -->
  <path d="M54.65,18.06c.05.45.05,1.4,0,1.85-.22,2.09-1.89,4.32-3.73,5.26-5.54,2.57-10.99,6.42-16.55,8.84-4.01,1.75-8.29,1.69-12.27-.1-5.74-2.59-11.35-6.4-17.04-9.17-4.24-3.05-4.02-9.03.43-11.81,5.23-3.26,11.47-5.72,16.82-8.88,3.94-1.71,8.12-1.71,12.06,0,5.34,3.14,11.52,5.6,16.75,8.84,1.78,1.1,3.3,3,3.53,5.16ZM27.08,6.98c-1.11.1-2.18.49-3.2.91L7.18,16.78c-1.57,1.35-1.28,3.83.58,4.75,5.43,2.52,10.77,6.3,16.2,8.68,3.42,1.5,6.47,1.13,9.73-.48,5.21-2.57,10.18-5.68,15.38-8.26,1.92-1.1,1.95-3.89,0-4.97l-16.34-8.64c-1.79-.81-3.69-1.06-5.64-.88Z"/>
  <path d="M54.65,40.07v.93c-.25.54-.49.97-.99,1.32l-19.22,10.29c-4.61,2.02-8.86,1.63-13.3-.55-6.13-3.02-12-6.6-18.12-9.64-2.11-1.44-.57-4.48,1.78-3.74l19.15,10.15c2.79,1.25,6.06,1.24,8.84-.03l19.08-10.22c1.32-.42,2.29.28,2.77,1.49Z"/>
  <path d="M54.65,30.81v.93c-.25.54-.49.97-.99,1.32l-19.22,10.29c-4.61,2.02-8.86,1.63-13.3-.55-6.13-3.02-12-6.6-18.12-9.64-2.11-1.44-.57-4.48,1.78-3.74l19.15,10.15c2.79,1.25,6.06,1.24,8.84-.03l19.08-10.22c1.32-.42,2.29.28,2.77,1.49Z"/>
</svg>