<?xml version="1.0" encoding="utf-8"?>
<!-- Generator: Adobe Illustrator 28.2.0, SVG Export Plug-In . SVG Version: 6.00 Build 0)  -->
<svg version="1.1" id="Layer_1" xmlns="http://www.w3.org/2000/svg" xmlns:xlink="http://www.w3.org/1999/xlink" x="0px" y="0px"
	 viewBox="0 0 56.7 56.7" style="enable-background:new 0 0 56.7 56.7;" xml:space="preserve">
<g>
	<path d="M28.4,31.5c7.3,0,14.6,0,22,0c1.8,0,3,0.9,3.4,2.4c0.4,2-0.9,3.8-2.9,3.9c-0.2,0-0.3,0-0.5,0c-14.6,0-29.3,0-43.9,0
		c-1.9,0-3.2-1-3.5-2.7c-0.3-1.7,1-3.5,2.7-3.6c0.3,0,0.6,0,0.9,0C13.9,31.5,21.1,31.5,28.4,31.5z"/>
	<path d="M28.4,6.1c7.4,0,14.8,0,22.2,0c1.7,0,3,1,3.3,2.6c0.4,1.9-1,3.7-2.9,3.8c-0.2,0-0.3,0-0.5,0c-14.7,0-29.4,0-44.1,0
		c-1.9,0-3.1-1-3.4-2.7C2.6,8,3.9,6.2,5.7,6.1c0.3,0,0.6,0,0.9,0C13.8,6.1,21.1,6.1,28.4,6.1z"/>
	<path d="M21.9,25.2c-5.2,0-10.5,0-15.7,0c-1.7,0-2.9-0.9-3.3-2.4c-0.5-2,0.9-3.8,2.9-4c0.1,0,0.2,0,0.4,0c10.5,0,21,0,31.4,0
		c1.4,0,2.5,0.6,3.1,1.9c1,2-0.5,4.4-2.7,4.5c-2.2,0.1-4.4,0-6.7,0C28.3,25.2,25.1,25.2,21.9,25.2z"/>
	<path d="M21.9,50.6c-5.3,0-10.5,0-15.8,0c-1.7,0-2.9-1-3.2-2.6c-0.4-1.9,1-3.7,2.9-3.8c0.1,0,0.2,0,0.4,0c10.5,0,21,0,31.6,0
		c1.9,0,3.3,1.3,3.3,3.2c0,1.7-1.3,3.1-3.1,3.2c-2,0-3.9,0-5.9,0C28.8,50.6,25.3,50.6,21.9,50.6z"/>
</g>
</svg>
