<?xml version="1.0" encoding="utf-8"?>
<!-- Generator: Adobe Illustrator 28.2.0, SVG Export Plug-In . SVG Version: 6.00 Build 0)  -->
<svg version="1.1" id="Layer_1" xmlns="http://www.w3.org/2000/svg" xmlns:xlink="http://www.w3.org/1999/xlink" x="0px" y="0px"
	 viewBox="0 0 56.7 56.7" style="enable-background:new 0 0 56.7 56.7;" xml:space="preserve">
<g>
	<path d="M28.4,19.6c6.1,0,12.2,0,18.3,0c2.1,0,3.9,1.4,4.2,3.5c0.1,0.8,0,1.6-0.2,2.5c-1.2,7.4-2.5,14.9-3.7,22.3
		c-0.3,2-2,3.4-4,3.4c-9.7,0-19.3,0-29,0c-2,0-3.7-1.4-4-3.4C8.5,40,7.2,32.2,5.9,24.3c-0.4-2.5,1.6-4.7,4.1-4.8
		c5.3,0,10.6,0,15.8,0C26.7,19.6,27.6,19.6,28.4,19.6z M28.4,23.1c-6,0-12.1,0-18.1,0c-0.7,0-1,0.2-0.9,0.9c1.3,7.7,2.6,15.3,3.8,23
		c0.1,0.5,0.3,0.7,0.8,0.7c1.4,0,2.7,0,4.1,0c8.1,0,16.2,0,24.3,0c0.5,0,0.9-0.1,1-0.7c0.3-1.8,0.6-3.6,0.9-5.4
		c1-5.8,1.9-11.6,2.9-17.4c0.2-0.9,0-1.1-0.9-1.1C40.4,23.1,34.4,23.1,28.4,23.1z"/>
	<path d="M28.4,12.5c6.2,0,12.4,0,18.6,0c1.3,0,2.2,1,1.9,2.2c-0.2,0.7-0.8,1.2-1.5,1.3c-0.1,0-0.3,0-0.4,0c-12.4,0-24.7,0-37.1,0
		c-1,0-1.6-0.4-1.9-1.1c-0.4-1.1,0.3-2.3,1.5-2.4c0.2,0,0.4,0,0.6,0C16.1,12.5,22.3,12.5,28.4,12.5z"/>
	<path d="M28.3,9c-4.6,0-9.2,0-13.7,0c-0.3,0-0.6,0-0.8-0.1c-0.8-0.2-1.4-1.1-1.3-1.9c0.1-0.8,0.8-1.5,1.7-1.5c0.1,0,0.3,0,0.4,0
		c9.2,0,18.3,0,27.5,0c0.3,0,0.6,0,0.9,0.1c0.8,0.2,1.3,1,1.2,1.9c-0.1,0.8-0.8,1.5-1.6,1.6c-0.2,0-0.4,0-0.6,0
		C37.5,9,32.9,9,28.3,9z"/>
	<path d="M28.6,35.7c0-0.6,0-1.1,0-1.6c0-2.2,0-4.5,0-6.7c0-1,0.4-1.6,1.2-1.9c0.8-0.3,1.5,0,2.1,0.8c1.2,1.7,2.5,3.4,3.7,5
		c0.6,0.9,0.5,1.9-0.2,2.5c-0.8,0.6-1.8,0.4-2.5-0.4c-0.2-0.3-0.4-0.5-0.7-0.8c0,0.2,0,0.3,0,0.5c0,2.2,0,4.5,0,6.7
		c0,2.9-2.3,5.4-5.2,5.5c-0.9,0-1.8,0-2.7-0.1c-2.4-0.4-4.3-2.3-4.6-4.8c-0.1-0.6,0.2-1.4,0.5-2c0.9-2.1,3.1-3.4,5.5-3.3
		c0.5,0,1,0,1.5,0.1C27.5,35.4,28,35.5,28.6,35.7z M25.8,38.8c-0.8,0-1.6,0.2-2.3,0.7c-0.6,0.5-0.6,1-0.1,1.5c1,0.9,3.4,1.3,4.7,0.1
		c0.6-0.6,0.6-1.2-0.1-1.7C27.4,38.9,26.7,38.8,25.8,38.8z"/>
</g>
</svg>
