<?xml version="1.0" encoding="utf-8"?>
<!-- Generator: Adobe Illustrator 28.2.0, SVG Export Plug-In . SVG Version: 6.00 Build 0)  -->
<svg version="1.1" id="Layer_1" xmlns="http://www.w3.org/2000/svg" xmlns:xlink="http://www.w3.org/1999/xlink" x="0px" y="0px"
	 viewBox="0 0 56.7 56.7" style="enable-background:new 0 0 56.7 56.7;" xml:space="preserve">
<g>
	<path d="M28.3,31.5c-7.3,0-14.6,0-22,0c-1.8,0-3,0.9-3.4,2.4c-0.4,2,0.9,3.8,2.9,3.9c0.2,0,0.3,0,0.5,0c14.6,0,29.3,0,43.9,0
		c1.9,0,3.2-1,3.5-2.7c0.3-1.7-1-3.5-2.7-3.6c-0.3,0-0.6,0-0.9,0C42.8,31.5,35.6,31.5,28.3,31.5z"/>
	<path d="M28.3,6.1c-7.4,0-14.8,0-22.2,0c-1.7,0-3,1-3.3,2.6c-0.4,1.9,1,3.7,2.9,3.8c0.2,0,0.3,0,0.5,0c14.7,0,29.4,0,44.1,0
		c1.9,0,3.1-1,3.4-2.7c0.3-1.7-1-3.5-2.8-3.6c-0.3,0-0.6,0-0.9,0C42.9,6.1,35.6,6.1,28.3,6.1z"/>
	<path d="M34.7,25.2c5.2,0,10.5,0,15.7,0c1.7,0,2.9-0.9,3.3-2.4c0.5-2-0.9-3.8-2.9-4c-0.1,0-0.2,0-0.4,0c-10.5,0-21,0-31.4,0
		c-1.4,0-2.5,0.6-3.1,1.9c-1,2,0.5,4.4,2.7,4.5c2.2,0.1,4.4,0,6.7,0C28.4,25.2,31.6,25.2,34.7,25.2z"/>
	<path d="M34.7,50.6c5.3,0,10.5,0,15.8,0c1.7,0,2.9-1,3.2-2.6c0.4-1.9-1-3.7-2.9-3.8c-0.1,0-0.2,0-0.4,0c-10.5,0-21,0-31.6,0
		c-1.9,0-3.3,1.3-3.3,3.2c0,1.7,1.3,3.1,3.1,3.2c2,0,3.9,0,5.9,0C27.9,50.6,31.3,50.6,34.7,50.6z"/>
</g>
</svg>
