<?xml version="1.0" encoding="utf-8"?>
<!-- Generator: Adobe Illustrator 28.2.0, SVG Export Plug-In . SVG Version: 6.00 Build 0)  -->
<svg version="1.1" id="Layer_1" xmlns="http://www.w3.org/2000/svg" xmlns:xlink="http://www.w3.org/1999/xlink" x="0px" y="0px"
	 viewBox="0 0 56.7 56.7" style="enable-background:new 0 0 56.7 56.7;" xml:space="preserve">
<g>
	<path d="M1.3,45.2c0.6-1.5,1.1-2.9,1.7-4.4c3.7-10,7.3-20,11-29.9c0.4-1.1,0.8-1.4,2-1.4c1.9,0,3.8,0,5.7,0c0.9,0,1.4,0.3,1.8,1.2
		c4.2,11.4,8.4,22.8,12.6,34.2c0.5,1.3-0.2,2.3-1.6,2.3c-2.3,0-4.6,0-6.9,0c-0.9,0-1.4-0.3-1.7-1.2c-0.8-2.1-1.5-4.1-2.3-6.2
		c-0.1-0.3-0.3-0.5-0.7-0.5c-2.7,0-5.4,0-8.2,0c-0.4,0-0.6,0.1-0.7,0.5c-0.7,2-1.5,4.1-2.2,6.1c-0.4,1-0.8,1.3-1.9,1.3
		c-2.1,0-4.3,0-6.4,0c-1,0-1.7-0.3-2.1-1.2C1.3,45.8,1.3,45.5,1.3,45.2z M18.8,31.7c1,0,2,0,2.9,0c0.9,0,1.2-0.5,0.9-1.3
		c-1-2.8-2-5.5-3-8.3c-0.1-0.4-0.4-0.7-0.8-0.7c-0.4,0-0.6,0.3-0.8,0.7c-1,2.8-2,5.5-3,8.3c-0.3,0.8,0,1.3,0.9,1.3
		C16.8,31.7,17.8,31.7,18.8,31.7z"/>
	<path d="M52.2,31.1c0-0.3,0-0.5,0-0.7c0.1-0.9,0.8-1.5,1.6-1.5c0.8,0,1.5,0.7,1.6,1.5c0,0.1,0,0.2,0,0.4c0,4.9,0,9.7,0,14.6
		c0,0.1,0,0.3,0,0.4c-0.1,0.9-0.7,1.5-1.6,1.5c-0.8,0-1.5-0.6-1.6-1.5c0-0.2,0-0.4,0-0.7c-2.2,1.8-4.7,2.6-7.5,2.1
		c-2.7-0.5-4.9-1.9-6.4-4.3c-2.2-3.6-1.6-8.4,1.5-11.3C42.8,28.6,48,27.7,52.2,31.1z M52.2,38.1c0-3.3-2.7-6-6-6c-3.4,0-6,2.6-6,6
		c0,3.4,2.6,6,6,6C49.4,44.1,52.2,41.3,52.2,38.1z"/>
</g>
</svg>
