<?xml version="1.0" encoding="UTF-8"?>
<svg id="Layer_1" xmlns="http://www.w3.org/2000/svg" version="1.1" viewBox="0 0 56.69 56.69">
  <!-- Generator: Adobe Illustrator 29.0.1, SVG Export Plug-In . SVG Version: 2.1.0 Build 192)  -->
  <defs>
    <style>
      .st0 {
        stroke: #231f20;
        stroke-miterlimit: 10;
        stroke-width: .75px;
      }
    </style>
  </defs>
  <path class="st0" d="M49.52,23.43c.06-.34.52-.93.8-1.13,1.03-.72,2.3-.11,2.63,1.03-.16,4.74.25,9.58.01,14.28-1.01,20.01-19.98,14.47-33.89,15.3C-.96,51.88,4.61,32.96,3.76,19.03c.27-2.96.76-6,2.24-8.61C10.94,1.75,22.75,4.05,31.1,3.73c1.91.64,1.6,3.22-.43,3.43-6.45.65-17.08-1.99-21.34,4.43-1.43,2.16-2.01,5.3-2.13,7.86-.31,6.55.07,13.52.23,20.07l.42,2c.13.03.18-.05.27-.1,3.12-1.71,6.22-4.57,9.36-6.32,2.23-1.25,4.78-1.4,7.05-.11,1.19.68,1.84,1.89,3.35,2.02,1.34.12,1.9-.19,2.9-.97,3.17-2.48,6.19-5.78,9.41-8.1,1.8-1.3,3.86-1.7,6.03-1.11,1.34.37,2.28,1.13,3.31,2.01v-5.42ZM43.8,30.07c-.61.08-1.15.37-1.64.73-3.22,2.33-6.26,5.7-9.46,8.16-2.27,1.75-5.06,2.14-7.64.77-2.06-1.09-2.82-3.22-5.72-1.67-3.26,1.74-6.43,4.68-9.71,6.51l-.35.42c1.95,2.98,5.44,4.01,8.82,4.4,6.34-.04,12.79.42,19.12.11,2.42-.12,5.21-.61,7.32-1.81,4.9-2.78,5.16-9.29,4.92-14.3-1.82-1.21-3.19-3.64-5.66-3.3Z"/>
  <path class="st0" d="M20.61,12.89c6.3-.76,9.77,6.98,4.97,11.09-3.89,3.32-10,.76-10.4-4.31-.26-3.24,2.18-6.38,5.44-6.78ZM21.14,16.32c-3.67.45-3.12,6.17.82,5.65,3.51-.46,2.91-6.11-.82-5.65Z"/>
  <path class="st0" d="M43.83,9.63v9.93c0,.61-1.08,1.33-1.67,1.35-.62.02-1.77-.7-1.77-1.35v-9.93c-.73.46-1.58,1.9-2.42,2.03-1.9.3-2.8-1.5-1.61-3,.78-.98,3.59-3.82,4.56-4.57.86-.66,1.66-.53,2.47.11,1.02.8,3.65,3.44,4.46,4.46,1.19,1.5.3,3.3-1.61,3-.84-.13-1.69-1.58-2.42-2.03Z"/>
</svg>