<?xml version="1.0" encoding="UTF-8"?>
<svg xmlns="http://www.w3.org/2000/svg" version="1.1" viewBox="0 0 1807.06 912.76">
  <defs>
    <style>
      .cls-1 {
        fill: #FF0088;
      }
    </style>
  </defs>
  <!-- Generator: Adobe Illustrator 28.6.0, SVG Export Plug-In . SVG Version: 1.2.0 Build 709)  -->
  <g>
    <g id="CUT_INDICATORS">
      <path class="cls-1" d="M908.98,3.32h-1V0h1v3.32ZM899.06,9.92h-1v3.32h1v-3.32ZM908.98,907.09h-1v5.67h1v-5.67ZM899.06,897.17h-1v5.67h1v-5.67ZM14.65,907.09h-1v5.67h1v-5.67ZM14.65,0h-1v5.67h1V0ZM1793.39,907.09h-1v5.67h1v-5.67ZM1793.39,0h-1v5.67h1V0ZM1807.06,9.42h-8.5v1h8.5v-1ZM1807.06,19.34h-8.5v1h8.5v-1ZM1807.06,902.33h-8.5v1h8.5v-1ZM1807.06,892.41h-8.5v1h8.5v-1ZM8.5,892.41H0v1h8.5v-1ZM8.48,9.42H-.03v1h8.5v-1ZM8.48,19.34H-.03v1h8.5v-1ZM8.5,902.33H0v1h8.5v-1Z"/>
    </g>
  </g>
</svg>
