<?xml version="1.0" encoding="utf-8"?>
<!-- Generator: Adobe Illustrator 28.2.0, SVG Export Plug-In . SVG Version: 6.00 Build 0)  -->
<svg version="1.1" id="Layer_1" xmlns="http://www.w3.org/2000/svg" xmlns:xlink="http://www.w3.org/1999/xlink" x="0px" y="0px"
	 viewBox="0 0 280.3 280.3" style="enable-background:new 0 0 280.3 280.3;" xml:space="preserve">
<style type="text/css">
	.st0{fill:#EC297B;}
</style>
<g>
	<path class="st0" d="M140.1,129.3c-6,0-10.8,4.9-10.8,10.8c0,6,4.9,10.8,10.8,10.8s10.8-4.9,10.8-10.8
		C151,134.2,146.1,129.3,140.1,129.3z M140.1,150c-5.4,0-9.8-4.4-9.8-9.8s4.4-9.8,9.8-9.8c5.4,0,9.8,4.4,9.8,9.8
		S145.6,150,140.1,150z"/>
	<path class="st0" d="M140.1,4.9C65.6,4.9,4.9,65.6,4.9,140.1c0,74.6,60.7,135.3,135.2,135.3c74.6,0,135.2-60.7,135.2-135.3
		C275.4,65.6,214.7,4.9,140.1,4.9z M140.1,274.4c-74,0-134.2-60.2-134.2-134.3S66.1,5.9,140.1,5.9s134.2,60.2,134.2,134.2
		S214.2,274.4,140.1,274.4z"/>
</g>
</svg>
